<svg width="32" height="32" viewBox="0 0 32 32" fill="none" xmlns="http://www.w3.org/2000/svg">
<rect width="32" height="32" rx="2" fill="black"/>
<path d="M16.962 16.3686C17.0513 16.3121 17.1201 16.2285 17.1585 16.1301C17.1969 16.0317 17.2028 15.9236 17.1753 15.8216C17.0935 15.6849 17.0657 15.5224 17.0974 15.3663C17.1139 15.3118 17.1118 15.2534 17.0912 15.2004C17.0706 15.1473 17.0328 15.1027 16.9839 15.0736C16.9435 15.0381 16.9116 14.994 16.8903 14.9446C16.869 14.8951 16.8589 14.8416 16.8608 14.7879C16.8458 14.6429 16.8253 14.5062 16.6448 14.4747C16.5792 14.4638 16.5587 14.3913 16.5436 14.3681C16.5083 14.3021 16.4781 14.2335 16.4534 14.163C16.4352 14.1259 16.4152 14.0898 16.3932 14.0549C16.3843 14.0645 16.3765 14.075 16.37 14.0864C16.3445 14.1341 16.3354 14.1889 16.344 14.2423C16.3396 14.3357 16.3555 14.429 16.3905 14.5157C16.4417 14.5815 16.5084 14.6337 16.5846 14.6675C16.5993 14.6726 16.6128 14.6805 16.6243 14.6908C16.6359 14.7012 16.6453 14.7137 16.6519 14.7277C16.6585 14.7418 16.6623 14.757 16.6629 14.7724C16.6636 14.7879 16.6611 14.8034 16.6557 14.8179C16.6507 14.8964 16.6383 14.9742 16.6188 15.0504C16.571 15.1803 16.6339 15.2391 16.7378 15.2815C16.7922 15.3012 16.838 15.3393 16.8673 15.3893C16.8965 15.4392 16.9073 15.4979 16.8978 15.555C16.8978 15.6561 16.8567 15.7792 16.9511 15.8585C16.981 15.8789 17.0064 15.9053 17.0254 15.9361C17.0444 15.9669 17.0567 16.0014 17.0615 16.0373C17.0663 16.0731 17.0634 16.1096 17.0531 16.1443C17.0428 16.179 17.0253 16.2112 17.0017 16.2386C16.9823 16.2785 16.9685 16.3208 16.9607 16.3644L16.962 16.3686Z" fill="#FEFEFE"/>
<path d="M13.1101 14.61C12.9684 14.1705 12.779 13.7477 12.5454 13.3493C12.3438 12.9902 12.0202 12.7151 11.6333 12.574C11.4583 12.5097 11.2778 12.4619 11.1028 12.399C11.067 12.3931 11.0333 12.3785 11.0046 12.3564C10.9759 12.3343 10.9531 12.3054 10.9384 12.2723C10.9236 12.2392 10.9173 12.203 10.9199 12.1669C10.9226 12.1307 10.9342 12.0959 10.9537 12.0653C10.9811 11.997 11.0194 11.9286 11.0658 11.8383C10.8375 11.9356 10.6261 12.0685 10.4396 12.2321C10.3521 12.3046 10.2564 12.3935 10.1415 12.2991C10.0266 12.2048 10.0909 12.0913 10.1415 11.9901C10.2208 11.8247 10.3083 11.6633 10.415 11.4678C10.1433 11.6106 9.90546 11.8102 9.7176 12.053C9.66017 12.12 9.60274 12.1898 9.50156 12.1337C9.40037 12.0776 9.40994 11.997 9.42362 11.9135C9.44139 11.7973 9.47011 11.6825 9.49335 11.5662L9.46464 11.5526C9.43424 11.5841 9.40635 11.6179 9.38123 11.6537C9.07767 12.161 8.67702 12.5466 8.09315 12.7217C7.95094 12.7693 7.83278 12.8703 7.76361 13.0033C7.33315 13.7328 6.99683 14.5139 6.76268 15.3279C6.71008 15.5419 6.61112 15.7417 6.47279 15.9131C6.25128 16.1866 6.01609 16.4492 5.81098 16.7336C5.52246 17.1301 5.35427 17.58 5.43631 18.0709C5.55938 18.812 5.99011 19.3426 6.64782 19.6953C6.7326 19.7418 6.77225 19.7131 6.82695 19.6475C6.92925 19.5056 7.06646 19.3925 7.22529 19.3192C7.38411 19.2459 7.55918 19.2149 7.73353 19.2291C7.80153 19.2301 7.86825 19.2105 7.92496 19.173C8.20183 19.022 8.52705 18.9861 8.83017 19.0732C9.05852 19.1374 9.28961 19.1949 9.51386 19.266C9.56452 19.284 9.61865 19.29 9.67202 19.2836C9.72539 19.2772 9.77656 19.2585 9.82153 19.2291C9.95364 19.151 10.1043 19.1099 10.2577 19.1101C11.1006 19.0904 11.9182 18.819 12.6055 18.3307C12.7758 18.2246 12.9228 18.085 13.0376 17.9205C13.354 17.4628 13.5634 16.9399 13.6502 16.3904C13.6926 16.069 13.7076 15.734 13.5135 15.4537C13.3395 15.1931 13.2037 14.909 13.1101 14.61ZM10.0307 16.6379C10.136 16.6611 10.2782 16.6242 10.2905 16.7896C10.3001 16.9264 10.1224 17.1438 10.0171 17.1465C9.91177 17.1493 9.74359 16.9305 9.74359 16.7965C9.76273 16.6078 9.92135 16.6625 10.0307 16.6379ZM8.3721 16.9948C8.14443 16.9919 7.9208 16.9343 7.72014 16.8267C7.51948 16.7191 7.34772 16.5648 7.21939 16.3767C7.07562 16.1766 7.01458 15.9287 7.04896 15.6847C7.08335 15.4407 7.21051 15.2193 7.40399 15.0667C8.02204 14.5444 9.09818 14.6839 9.56309 15.3402C9.63926 15.4427 9.69442 15.5593 9.72541 15.6832C9.75641 15.8071 9.76261 15.9358 9.74368 16.0621C9.72475 16.1884 9.68105 16.3098 9.6151 16.4191C9.54914 16.5285 9.46223 16.6237 9.35935 16.6994C9.07607 16.9125 8.72589 17.0173 8.3721 16.9948ZM10.4478 18.0641C10.355 18.1493 10.2369 18.2019 10.1115 18.2137C9.98609 18.2256 9.86023 18.1961 9.75316 18.1297C9.77011 18.3762 9.73709 18.6237 9.65607 18.8571C9.62189 18.9529 9.57266 19.0267 9.46054 18.9939C9.34841 18.9611 9.34978 18.8653 9.38123 18.7724C9.46035 18.5362 9.48558 18.2853 9.45507 18.0381C9.44814 17.9143 9.40357 17.7956 9.32732 17.6978C9.25108 17.6001 9.1468 17.528 9.02844 17.4911C8.93409 17.4542 8.83564 17.4118 8.88076 17.2887C8.92589 17.1657 9.03391 17.1835 9.13783 17.2245C9.26947 17.2611 9.38712 17.3364 9.47558 17.4405C9.59399 17.595 9.74657 17.72 9.92135 17.8056C9.96844 17.8378 10.0251 17.8531 10.082 17.8488C10.1389 17.8446 10.1927 17.8212 10.2345 17.7824C10.322 17.7126 10.4109 17.6935 10.4874 17.7824C10.5049 17.8028 10.5178 17.8268 10.5253 17.8526C10.5328 17.8784 10.5347 17.9055 10.531 17.9321C10.5272 17.9588 10.5179 17.9843 10.5035 18.007C10.4892 18.0298 10.4702 18.0492 10.4478 18.0641ZM12.7614 16.3986C12.317 17.0125 11.327 17.1752 10.7103 16.7363C10.177 16.3589 10.121 15.6766 10.5832 15.1898C10.8566 14.8958 11.2669 14.729 11.8794 14.7304C12.0505 14.7406 12.2175 14.7868 12.3694 14.866C12.5214 14.9452 12.655 15.0555 12.7614 15.1898C12.9004 15.3605 12.9764 15.574 12.9764 15.7942C12.9764 16.0144 12.9004 16.2278 12.7614 16.3986Z" fill="white"/>
<path d="M23.6979 18.3868C23.8839 18.3868 24.063 18.3007 24.2381 18.3417C24.3504 18.3436 24.4627 18.339 24.5744 18.328C24.7112 18.3048 24.7508 18.2583 24.6702 18.1298C24.5225 17.8758 24.3994 17.6084 24.3023 17.3312C24.1082 16.8444 23.9591 16.3412 23.7308 15.8667C23.5452 15.5182 23.3861 15.1562 23.2549 14.7838C23.113 14.3605 22.9187 13.9568 22.6765 13.5818C22.6493 13.5398 22.6121 13.5053 22.5681 13.4814C22.5242 13.4575 22.4749 13.445 22.4249 13.4451C22.2171 13.4205 22.0051 13.4533 21.8 13.4177C21.6181 13.3863 21.5361 13.456 21.4691 13.6256C21.0753 14.6333 20.7526 15.6671 20.3301 16.6653C20.1086 17.1876 19.9199 17.7209 19.6655 18.2323C19.6327 18.2993 19.6464 18.3554 19.7407 18.3554C19.8477 18.3463 19.9554 18.3523 20.0607 18.3731C20.2128 18.4162 20.3692 18.4428 20.527 18.4525C20.5588 18.459 20.5917 18.4586 20.6234 18.4514C20.6551 18.4441 20.6849 18.4302 20.7108 18.4105C20.7367 18.3908 20.7581 18.3659 20.7736 18.3373C20.789 18.3086 20.7982 18.2771 20.8005 18.2446C20.856 18.0374 20.9311 17.836 21.0247 17.643C21.0498 17.5803 21.0925 17.5263 21.1475 17.4872C21.2026 17.4482 21.2677 17.4258 21.3351 17.4228C21.8957 17.3394 22.455 17.4625 23.0142 17.4228C23.0511 17.4192 23.0881 17.4288 23.1186 17.4498C23.1491 17.4708 23.1713 17.5019 23.1811 17.5377C23.2699 17.7606 23.337 17.993 23.4313 18.2214C23.4491 18.276 23.4856 18.3225 23.5344 18.3528C23.5832 18.3831 23.6411 18.3951 23.6979 18.3868ZM22.5111 16.3139C22.2376 16.3139 21.9709 16.3057 21.7002 16.3029C21.6496 16.3029 21.6072 16.3029 21.6318 16.2305C21.7686 15.8202 21.9258 15.4223 22.1063 15.0244C22.1282 15.0449 22.1446 15.0531 22.1514 15.0668C22.3114 15.4141 22.5111 15.7409 22.6464 16.0978C22.7175 16.2797 22.7052 16.3098 22.5111 16.3139Z" fill="#ED6879"/>
<path d="M19.2705 18.1352C19.2828 17.9041 19.2855 17.6717 19.3005 17.4406C19.3101 17.3039 19.2568 17.2533 19.1159 17.256C18.6456 17.2656 18.1752 17.256 17.7048 17.2669C17.5571 17.2669 17.5202 17.2123 17.4983 17.0741C17.473 16.7926 17.473 16.5093 17.4983 16.2277C17.4983 16.1211 17.538 16.091 17.6351 16.0992C17.9974 16.0992 18.3598 16.0992 18.729 16.0855C19.0982 16.0719 19.1652 15.9625 19.1118 15.6151C19.1122 15.5529 19.1076 15.4907 19.0982 15.4292C19.0626 15.3294 19.0845 15.1762 18.9423 15.1557C18.7114 15.102 18.4751 15.075 18.2381 15.075C18.056 15.0881 17.8732 15.0881 17.6911 15.075C17.4053 15.06 17.404 15.0559 17.43 14.7674C17.4446 14.6896 17.4546 14.6111 17.46 14.5322C17.46 14.3954 17.5202 14.3654 17.6487 14.364C18.059 14.364 18.4692 14.3489 18.8712 14.3339C19.0708 14.3339 19.1324 14.2642 19.1447 14.0604C19.1508 13.8908 19.1481 13.7211 19.1365 13.5518C19.1283 13.4492 19.0954 13.3549 18.9614 13.3412C18.2686 13.2632 17.57 13.2509 16.8748 13.3043C16.7649 13.3295 16.6525 13.3419 16.5398 13.3412C16.2868 13.3043 16.2485 13.3412 16.2485 13.5941C16.2485 13.657 16.2485 13.7186 16.2485 13.7815L16.2868 13.8444C16.3456 13.8663 16.347 13.9551 16.4236 13.9565C16.4646 13.9565 16.5111 13.9729 16.507 14.0208C16.507 14.0208 16.507 14.0563 16.4892 14.0673C16.4714 14.0782 16.4714 14.0673 16.4509 14.0673C16.4304 14.0673 16.4318 14.0673 16.4263 14.0673C16.4208 14.0673 16.4113 14.085 16.4085 14.096C16.4133 14.1121 16.4197 14.1277 16.4277 14.1425C16.4331 14.1527 16.4395 14.1623 16.4468 14.1712C16.4695 14.2397 16.5027 14.3043 16.5453 14.3626C16.5726 14.4009 16.5904 14.4597 16.6464 14.4693C16.8269 14.5007 16.8475 14.6375 16.8625 14.7824C16.8606 14.8362 16.8706 14.8897 16.8919 14.9391C16.9132 14.9885 16.9452 15.0326 16.9856 15.0682C17.0345 15.0972 17.0722 15.1419 17.0928 15.1949C17.1134 15.248 17.1156 15.3064 17.099 15.3608C17.0673 15.517 17.0951 15.6794 17.177 15.8161C17.2044 15.9181 17.1986 16.0263 17.1602 16.1247C17.1218 16.2231 17.0529 16.3066 16.9637 16.3631C17.0246 16.4442 17.0584 16.5423 17.0604 16.6437C17.0623 16.7451 17.0323 16.8445 16.9746 16.9278C16.9215 17.0402 16.9006 17.1652 16.9145 17.2888C16.9145 17.3722 16.883 17.4256 16.7996 17.4502C16.6546 17.4844 16.5712 17.6307 16.4236 17.658C16.3661 17.658 16.3497 17.6936 16.3511 17.7483C16.3511 17.8385 16.3511 17.9288 16.3511 18.0217C16.3511 18.2583 16.4099 18.313 16.6505 18.3362C16.9733 18.3677 17.2973 18.354 17.62 18.3622C18.1112 18.3771 18.6027 18.3584 19.0913 18.3062C19.2158 18.2966 19.265 18.2419 19.2705 18.1352Z" fill="#ED6879"/>
<path d="M13.1939 9.34836C13.0862 9.31128 12.9702 9.30574 12.8595 9.33239C12.7488 9.35904 12.648 9.41676 12.569 9.49877C12.4069 9.66057 12.2803 9.85428 12.197 10.0676C11.9099 10.7253 11.6679 11.4008 11.4231 12.0749C11.3917 12.1583 11.3999 12.198 11.4983 12.2267C11.9286 12.3352 12.3122 12.5798 12.5922 12.9241C12.6007 12.9073 12.608 12.8899 12.6141 12.8721C12.6107 12.4454 12.7278 12.0265 12.9518 11.6633C12.9956 11.5977 12.9518 11.5526 12.9327 11.5075C12.8042 11.2121 12.6387 10.9332 12.5348 10.6269C12.4965 10.5147 12.4063 10.3725 12.5785 10.3069C12.7508 10.2413 12.7672 10.4067 12.8137 10.5093C13.0188 10.9687 13.1952 11.4418 13.4974 11.8493C13.7244 12.1542 13.9446 12.4633 14.1702 12.7682C14.3196 12.9813 14.487 13.1813 14.6706 13.3657C14.7582 13.4492 14.8443 13.5914 14.9715 13.5503C15.0986 13.5093 15.1027 13.3493 15.1274 13.2358C15.2502 12.5591 15.2066 11.8627 15.0002 11.2066C14.7308 10.2618 14.1387 9.63688 13.1939 9.34836Z" fill="white"/>
<path d="M5.76055 13.1429C6.05317 12.7532 6.33758 12.3594 6.62473 11.9656C6.83187 11.6897 7.00325 11.3888 7.13477 11.0699C7.21681 10.8662 7.30843 10.6597 7.39321 10.4614C7.43286 10.3643 7.48892 10.2809 7.60652 10.3247C7.72411 10.3684 7.70497 10.4765 7.67352 10.5708C7.63989 10.673 7.60109 10.7734 7.55729 10.8716C7.45611 11.0986 7.34945 11.3229 7.2469 11.5553C7.22638 11.5991 7.20177 11.6401 7.2469 11.6921C7.46431 11.9943 7.53405 12.3484 7.59284 12.7313C7.7392 12.5832 7.91349 12.4656 8.10561 12.3853C8.2697 12.3101 8.43379 12.2336 8.60061 12.1638C8.62914 12.1578 8.65581 12.145 8.67839 12.1265C8.70098 12.108 8.71884 12.0845 8.73047 12.0577C8.74211 12.031 8.74719 12.0018 8.74529 11.9727C8.7434 11.9436 8.73458 11.9154 8.71957 11.8904C8.49532 11.2983 8.2656 10.7089 8.01263 10.1292C7.92563 9.90715 7.79231 9.70624 7.62156 9.53981C7.54626 9.45821 7.44954 9.39942 7.34242 9.37017C7.23531 9.34091 7.12213 9.34236 7.01581 9.37436C6.31844 9.5863 5.76328 9.98011 5.42964 10.6378C5.09344 11.3271 4.94802 12.0939 5.00848 12.8585C5.01585 13.0795 5.06214 13.2975 5.14522 13.5025C5.19718 13.6201 5.26145 13.6392 5.364 13.5572C5.51394 13.4373 5.64729 13.2979 5.76055 13.1429Z" fill="white"/>
<path d="M27.0041 13.3767H25.2729V13.4204H24.4402C24.3746 13.4204 24.2843 13.4068 24.2816 13.5025C24.2592 13.7959 24.2656 14.0909 24.3007 14.3831C24.3185 14.4884 24.3814 14.5198 24.4703 14.4911C24.615 14.4633 24.7634 14.4601 24.9092 14.4815C25.169 14.5034 25.1909 14.5171 25.2278 14.7769C25.3153 15.3977 25.2839 16.0267 25.3276 16.6502C25.3659 17.1862 25.2935 17.7222 25.3276 18.2596C25.3276 18.343 25.3276 18.4196 25.4452 18.4169C25.7461 18.4087 26.0455 18.4059 26.3463 18.4046C26.4243 18.4046 26.4503 18.3745 26.4585 18.2938C26.5337 17.5294 26.4585 16.7678 26.4024 16.0075C26.3682 15.5385 26.3792 15.0709 26.3477 14.6032C26.3477 14.5143 26.3764 14.4747 26.4708 14.4665C26.6439 14.4392 26.8194 14.4296 26.9945 14.4378C27.1312 14.4378 27.2092 14.3913 27.216 14.2491C27.2269 13.9988 27.1955 13.7513 27.1832 13.5038C27.1777 13.3767 27.0957 13.3753 27.0041 13.3767Z" fill="#ED6879"/>
<path d="M20.8702 13.0226C21.0835 12.9925 21.2804 13.1019 21.491 13.0868C21.5321 13.0899 21.5728 13.0776 21.6054 13.0523C21.638 13.0271 21.66 12.9907 21.6674 12.9501C21.7084 12.8134 21.7713 12.6766 21.8191 12.5399C21.8398 12.4759 21.8802 12.42 21.9344 12.3803C21.9887 12.3405 22.0541 12.3188 22.1213 12.3184C22.496 12.2637 22.8679 12.3621 23.2399 12.3184C23.2721 12.3116 23.3054 12.3119 23.3374 12.3193C23.3695 12.3267 23.3996 12.3409 23.4256 12.3611C23.4516 12.3812 23.473 12.4068 23.4881 12.436C23.5032 12.4653 23.5119 12.4974 23.5133 12.5303C23.5379 12.6671 23.6145 12.7805 23.6501 12.9091C23.6856 13.0376 23.7608 13.0458 23.8675 13.0458C24.0042 13.0458 24.141 12.9761 24.2504 13.0034C24.3543 13.0034 24.4226 13.0034 24.4896 13.0034C24.6072 13.0034 24.6455 12.9542 24.5744 12.8448C24.4758 12.6799 24.3942 12.5053 24.331 12.3238C24.1587 11.8781 24.0111 11.4214 23.8019 10.9893C23.6882 10.7816 23.5922 10.5648 23.5147 10.3411C23.4158 10.0349 23.2779 9.74259 23.1045 9.47147C23.0813 9.42652 23.0452 9.38949 23.0009 9.36514C22.9566 9.34078 22.906 9.33019 22.8556 9.33473C22.7089 9.34824 22.5612 9.34456 22.4153 9.32379C22.2717 9.29508 22.228 9.35661 22.1842 9.46874C21.8834 10.2345 21.6373 11.0194 21.3187 11.7783C21.1587 12.1557 21.0028 12.5358 20.8428 12.9132C20.8155 12.9651 20.8073 13.0308 20.8702 13.0226ZM22.3059 11.4009C22.4153 11.1096 22.5179 10.8142 22.6697 10.5011C22.8132 10.8033 22.9431 11.0795 23.0799 11.3585C23.1195 11.4473 23.0799 11.4952 22.9801 11.4952C22.7777 11.4952 22.5698 11.487 22.3743 11.4815C22.3128 11.4843 22.2854 11.4583 22.3073 11.4009H22.3059Z" fill="#ED6879"/>
<path d="M11.0591 21.097C11.0426 20.9612 11.0722 20.8237 11.1431 20.7067C11.214 20.5897 11.3222 20.4999 11.4502 20.4516C11.5802 20.4071 11.7152 20.3791 11.8522 20.3682C11.7315 20.2304 11.5701 20.1346 11.3914 20.0947C10.519 19.8554 9.64659 19.6134 8.77419 19.3754C8.61362 19.3186 8.43841 19.3186 8.27783 19.3754L8.41457 19.4712C8.78377 19.7446 8.8494 20.0578 8.61011 20.4502C8.59932 20.4692 8.59365 20.4906 8.59365 20.5124C8.59365 20.5342 8.59932 20.5557 8.61011 20.5746C8.64729 20.6768 8.65132 20.7881 8.62162 20.8927C8.59191 20.9972 8.52999 21.0898 8.44465 21.1572C8.4178 21.1754 8.39713 21.2014 8.38541 21.2317C8.37368 21.262 8.37146 21.2951 8.37902 21.3267C8.39406 21.4115 8.45149 21.4183 8.51576 21.4334L10.6598 22.0213C10.7173 22.0364 10.7706 22.0733 10.8253 22.0008C10.8487 21.9781 10.8647 21.9489 10.8713 21.9169C10.8779 21.885 10.8747 21.8518 10.8622 21.8217C10.8218 21.7207 10.8147 21.6095 10.842 21.5042C10.8693 21.3989 10.9296 21.3051 11.014 21.2365C11.034 21.2199 11.0488 21.198 11.0568 21.1733C11.0648 21.1486 11.0656 21.1221 11.0591 21.097Z" fill="white"/>
<path d="M16.2212 11.502C16.1898 11.9778 16.2431 12.4592 16.239 12.9268C16.239 13.0376 16.2609 13.0923 16.3976 13.0526C16.5699 12.9939 16.7537 12.9775 16.9336 13.0047C17.0335 13.0239 17.0403 13.0143 17.0389 12.9172C17.028 12.533 17.028 12.1474 17.0294 11.7632C17.0294 11.5102 17.0526 11.5198 17.3028 11.4897C17.9496 11.4076 18.3762 11.1478 18.5157 10.5462C18.552 10.4267 18.5623 10.3008 18.5457 10.177C18.5291 10.0532 18.4861 9.93444 18.4195 9.82874C18.353 9.72305 18.2645 9.63289 18.1601 9.5644C18.0556 9.4959 17.9377 9.45067 17.8142 9.43176C17.3562 9.3292 16.8913 9.35655 16.4304 9.33331C16.2185 9.32373 16.1994 9.33331 16.2144 9.55345C16.2515 10.2024 16.2538 10.8528 16.2212 11.502ZM17.2796 10.1428C17.3914 10.1594 17.4947 10.2123 17.5736 10.2932C17.6052 10.3218 17.6287 10.3581 17.6417 10.3987C17.6548 10.4392 17.6569 10.4824 17.6479 10.524C17.6388 10.5657 17.619 10.6041 17.5904 10.6356C17.5617 10.6671 17.5253 10.6905 17.4847 10.7034L17.4382 10.7226C17.1456 10.8238 17.0622 10.7732 17.028 10.4737C17.028 10.4286 17.028 10.3835 17.028 10.337C17.0184 10.0895 17.0294 10.0813 17.2823 10.1428H17.2796Z" fill="#ED6879"/>
<path d="M25.1322 11.1738C25.175 11.2386 25.1965 11.3151 25.1937 11.3926C25.1937 11.9081 25.1937 12.4223 25.1801 12.9378C25.1801 13.0089 25.1896 13.0485 25.2662 13.0458C25.4918 13.0458 25.7188 13.0376 25.9499 13.0266C26.0073 13.0266 26.0648 13.0075 26.0634 12.9145C26.0524 12.5043 26.0716 12.0941 26.0401 11.6948C26.0253 11.4489 26.0926 11.205 26.2316 11.0015C26.5119 10.538 26.8319 10.0977 27.0862 9.61775C27.1778 9.44546 27.1477 9.38256 26.9495 9.37162C26.7915 9.36507 26.6339 9.34955 26.4777 9.32513C26.4174 9.30866 26.3532 9.31437 26.2967 9.34121C26.2403 9.36806 26.1953 9.41427 26.17 9.47144C25.9759 9.81739 25.7776 10.1551 25.5793 10.5093C25.526 10.4833 25.5178 10.4231 25.4932 10.3725C25.3469 10.0813 25.1965 9.79004 25.0488 9.49879C24.9695 9.34154 24.8656 9.25539 24.6714 9.31966C24.5664 9.34289 24.4586 9.35027 24.3514 9.34154C24.1176 9.34154 24.093 9.37025 24.2037 9.5822C24.4827 10.1292 24.8095 10.6501 25.1322 11.1738Z" fill="#ED6879"/>
<path d="M18.8067 12.8804C18.8067 12.9556 18.7985 13.0171 18.9024 13.0171C19.4494 13.0171 19.9927 13.0235 20.5324 13.0363C20.6021 13.0363 20.6376 13.0144 20.6349 12.9392C20.6349 12.7464 20.6267 12.5536 20.6253 12.3621C20.6253 12.2582 20.5843 12.2254 20.4722 12.2131C20.2466 12.1953 20.021 12.1939 19.7885 12.1953C19.7051 12.1953 19.6805 12.1748 19.6723 12.0832C19.6458 11.728 19.6495 11.3712 19.6832 11.0166C19.716 10.549 19.6832 10.0827 19.6832 9.61505C19.6835 9.54735 19.6733 9.48002 19.6531 9.41541C19.6491 9.39049 19.6356 9.36808 19.6155 9.35281C19.5954 9.33754 19.5702 9.33058 19.5451 9.33336C19.3578 9.33336 19.1704 9.33336 18.9845 9.33336C18.9175 9.33336 18.8477 9.34567 18.8327 9.43728C18.815 9.52735 18.8063 9.61897 18.8067 9.71076C18.8546 10.2577 18.8177 10.8047 18.8286 11.3516C18.8053 11.8617 18.7903 12.3703 18.8067 12.8804Z" fill="#ED6879"/>
<path d="M25.6641 20.9848C25.4863 20.4543 25.2183 19.962 25.0255 19.4383C24.923 19.1648 24.763 18.998 24.4348 19.0459C24.3241 19.0623 24.2721 19.0828 24.2325 19.1908C23.9398 19.9702 23.6705 20.7579 23.3149 21.5318C23.397 21.5318 23.4517 21.5318 23.5091 21.5441C23.8428 21.6056 23.8537 21.6111 23.9617 21.3034C23.9801 21.2236 24.0283 21.1538 24.0964 21.1083C24.1645 21.0629 24.2474 21.0451 24.3282 21.0587C24.5204 21.0689 24.713 21.0689 24.9052 21.0587C24.9356 21.0534 24.9668 21.0546 24.9967 21.0622C25.0266 21.0698 25.0545 21.0836 25.0788 21.1027C25.103 21.1217 25.123 21.1457 25.1374 21.173C25.1517 21.2003 25.1602 21.2303 25.1623 21.2611C25.2224 21.5345 25.2607 21.5564 25.5451 21.5345C25.5793 21.5345 25.6135 21.5345 25.6477 21.5345C25.9089 21.5345 25.9061 21.5345 25.7995 21.3103C25.7483 21.2044 25.7031 21.0958 25.6641 20.9848ZM24.763 20.5186C24.7233 20.5186 24.6837 20.5186 24.644 20.5186C24.3036 20.5186 24.3036 20.5186 24.428 20.189C24.4676 20.0851 24.5141 19.9812 24.5729 19.8376C24.6755 20.0495 24.763 20.2246 24.8464 20.4023C24.8765 20.4734 24.856 20.524 24.763 20.5186Z" fill="#ED6879"/>
<path d="M17.389 20.561C17.3616 20.5172 17.3028 20.468 17.389 20.4242C17.5708 20.3449 17.6241 20.1713 17.6829 20.014C17.8019 19.6927 17.5982 19.0568 17.0608 19.0883C16.8584 19.0992 16.6506 19.0883 16.4509 19.0883C16.1487 19.102 16.1487 19.1061 16.146 19.4206C16.146 20.0496 16.2431 20.6731 16.213 21.3021C16.2007 21.5496 16.2677 21.6056 16.5179 21.6002C16.574 21.6002 16.6301 21.5783 16.6847 21.5797C16.775 21.5797 16.7969 21.5482 16.7928 21.458C16.8029 21.1584 16.7846 20.8585 16.7381 20.5623C16.8295 20.6265 16.9011 20.7151 16.9445 20.818C17.058 21.0313 17.1606 21.2515 17.2714 21.4662C17.2946 21.5127 17.3124 21.5715 17.3944 21.555C17.5046 21.5314 17.6168 21.5186 17.7294 21.5168C17.8744 21.5168 17.888 21.4566 17.8334 21.3445C17.7006 21.0749 17.5522 20.8133 17.389 20.561ZM16.9336 20.014C16.7258 20.0373 16.76 19.8991 16.7641 19.7501C16.7791 19.6954 16.6875 19.56 16.8775 19.5641C17.0457 19.5641 17.2358 19.6735 17.2413 19.7802C17.2467 19.8868 17.1073 19.9908 16.9336 20.0099V20.014Z" fill="#ED6879"/>
<path d="M19.4208 20.9944H19.1323C18.6633 20.9944 18.666 20.9944 18.6961 20.5281C18.6961 20.4352 18.7262 20.3996 18.8233 20.4023C18.9873 20.4023 19.1514 20.3914 19.3155 20.3887C19.4249 20.3887 19.5206 20.3777 19.522 20.2287C19.522 20.0017 19.4837 19.9415 19.3251 19.9046C19.157 19.8883 18.988 19.8814 18.8191 19.8841C18.7234 19.8732 18.64 19.8745 18.6605 19.7364C18.6783 19.6216 18.6701 19.5122 18.8424 19.5231C19.0147 19.534 19.1596 19.5108 19.3182 19.5094C19.4427 19.5094 19.5398 19.4944 19.5411 19.3303C19.5411 19.0568 19.5234 19.0076 19.3278 18.9967C18.9764 18.9762 18.6263 18.9967 18.2763 18.9967C18.0466 18.9967 18.0657 19.0965 18.0712 19.2483C18.0917 19.7843 18.1081 20.3217 18.1259 20.859H18.119C18.119 21.0286 18.1259 21.1995 18.119 21.3691C18.119 21.4867 18.1655 21.5345 18.2736 21.5386C18.6089 21.5667 18.946 21.5667 19.2813 21.5386C19.5835 21.5004 19.5835 21.5031 19.6095 21.2023C19.6273 20.9972 19.6245 20.9944 19.4208 20.9944Z" fill="#ED6879"/>
<path d="M22.9556 20.9917C22.8645 20.9979 22.7731 20.9979 22.6821 20.9917C22.198 20.9917 22.2008 20.9917 22.2295 20.5117C22.2295 20.4187 22.2664 20.3996 22.3498 20.3996C22.5194 20.3996 22.6889 20.39 22.8585 20.3846C22.961 20.3846 23.0622 20.3722 23.0485 20.2314C23.0349 20.0906 23.095 19.9429 22.879 19.9032C22.6917 19.8677 22.5071 19.9032 22.3211 19.88C22.2199 19.869 22.1748 19.8403 22.1967 19.7432C22.2185 19.6462 22.168 19.5272 22.3334 19.5286C22.4989 19.5299 22.6835 19.5122 22.8598 19.5122C22.9843 19.5122 23.065 19.4821 23.065 19.3344C23.065 19.0527 23.0499 19.0158 22.8722 18.9994C22.4777 18.9789 22.0825 18.9789 21.688 18.9994C21.6169 18.9994 21.6005 19.05 21.5964 19.0978C21.5909 19.1711 21.5909 19.2447 21.5964 19.318C21.6155 19.8504 21.6356 20.3818 21.6566 20.9124H21.6483C21.6483 21.071 21.6483 21.2296 21.6483 21.3882C21.6483 21.4894 21.6894 21.5386 21.7851 21.5427C22.1202 21.5742 22.4573 21.5769 22.7928 21.5509C23.1114 21.5099 23.106 21.5058 23.1429 21.1968C23.1634 21.0341 23.1183 20.9698 22.9556 20.9917Z" fill="#ED6879"/>
<path d="M8.38474 19.8855C8.17006 19.5504 7.58892 19.4287 7.26348 19.6503C7.0635 19.805 6.91097 20.0128 6.82322 20.2499C6.73547 20.487 6.71603 20.744 6.76712 20.9917C6.89155 21.4566 7.49594 21.7465 7.90752 21.5386C8.08528 21.4497 8.10442 21.3636 7.98409 21.2077C7.92247 21.1505 7.87194 21.0823 7.83505 21.0067C8.00734 20.9548 8.23706 21.0368 8.30543 20.8043C8.3738 20.5719 8.11126 20.55 8.00187 20.3941C8.09212 20.3627 8.17006 20.3353 8.248 20.3052C8.28888 20.2919 8.32602 20.269 8.35641 20.2386C8.3868 20.2081 8.40958 20.1709 8.42291 20.13C8.43623 20.0891 8.43971 20.0457 8.43308 20.0032C8.42645 19.9607 8.40989 19.9203 8.38474 19.8855Z" fill="white"/>
<path d="M11.5857 20.7333C11.5375 20.7456 11.4935 20.7704 11.458 20.8052C11.4226 20.84 11.397 20.8835 11.3838 20.9314C11.3706 20.9793 11.3703 21.0299 11.3829 21.0779C11.3956 21.126 11.4207 21.1698 11.4558 21.205C11.5036 21.2652 11.572 21.3117 11.5925 21.391C11.4476 21.4744 11.2097 21.3404 11.1427 21.5797C11.0757 21.819 11.3355 21.8627 11.4394 21.9995C11.4011 22.0446 11.3464 22.0473 11.3026 22.0651C10.995 22.1759 10.969 22.3085 11.211 22.541C11.5624 22.8787 12.2092 22.8008 12.495 22.381C12.598 22.231 12.6693 22.0616 12.7045 21.8832C12.7398 21.7047 12.7383 21.521 12.7001 21.3431C12.6762 21.2245 12.6267 21.1125 12.555 21.015C12.4832 20.9175 12.391 20.8369 12.2849 20.7788C12.1787 20.7207 12.0611 20.6865 11.9403 20.6786C11.8195 20.6708 11.6985 20.6894 11.5857 20.7333Z" fill="white"/>
<path d="M20.9249 19.1197C20.6458 19.0763 20.3636 19.0553 20.0812 19.0568C19.8651 19.0459 19.8405 19.0705 19.8624 19.2811C19.8923 19.7364 19.8923 20.1932 19.8624 20.6485C19.8542 20.9219 19.8788 21.1954 19.8857 21.4785C19.8857 21.5359 19.8966 21.5851 19.9691 21.5619C20.1058 21.5181 20.3095 21.5824 20.3902 21.5085C20.4709 21.4347 20.3902 21.2241 20.4107 21.0833C20.3964 20.9396 20.3964 20.7949 20.4107 20.6512C20.4189 20.5582 20.4518 20.5022 20.5557 20.5145C20.7605 20.5107 20.9593 20.4449 21.1259 20.3258C21.2456 20.2391 21.3371 20.1191 21.3889 19.9807C21.4408 19.8423 21.4506 19.6917 21.4171 19.5477C21.3889 19.4345 21.3265 19.3327 21.2384 19.2562C21.1504 19.1796 21.0409 19.132 20.9249 19.1197ZM20.5379 20.0208C20.3219 19.9935 20.4654 19.7897 20.4012 19.679C20.3642 19.612 20.4312 19.5846 20.4859 19.5915C20.6746 19.5915 20.8333 19.705 20.8333 19.8362C20.8374 19.9402 20.702 20.0496 20.5379 20.0208Z" fill="#ED6879"/>
<path d="M27.1408 19.1539C27.1408 19.0555 27.108 19.0172 27.0041 19.0254C26.6759 19.0418 26.3478 19.0459 26.0196 19.0527C25.6682 19.0623 25.6709 19.0609 25.6709 19.4082C25.6709 19.545 25.6914 19.6024 25.8514 19.5819C26.103 19.5504 26.1563 19.5901 26.1645 19.828C26.1796 20.2683 26.2425 20.7059 26.1932 21.1475C26.1495 21.5441 26.1796 21.5742 26.5665 21.5714C26.5952 21.5694 26.624 21.5694 26.6527 21.5714C26.7347 21.581 26.7675 21.5523 26.7785 21.462C26.7928 21.2759 26.7928 21.0889 26.7785 20.9028C26.7648 20.5131 26.7183 20.1247 26.7183 19.7337C26.7183 19.5901 26.7662 19.5627 26.892 19.5614C27.1778 19.5614 27.1819 19.5477 27.149 19.2551C27.1442 19.2216 27.1415 19.1878 27.1408 19.1539Z" fill="#ED6879"/>
<path d="M16.9128 17.2943C16.8989 17.1707 16.9198 17.0457 16.9729 16.9333C17.0306 16.8499 17.0607 16.7505 17.0587 16.6491C17.0567 16.5478 17.0229 16.4496 16.962 16.3685C16.854 16.4807 16.895 16.6215 16.8964 16.7514C16.8975 16.844 16.8804 16.9358 16.8459 17.0217C16.8114 17.1076 16.7602 17.1858 16.6954 17.2519C16.5798 17.3706 16.487 17.5097 16.4219 17.6621C16.5696 17.6347 16.653 17.4884 16.7979 17.4542C16.8813 17.4365 16.9046 17.3777 16.9128 17.2943Z" fill="#FEFCFC"/>
<path d="M10.0215 17.1466C10.1227 17.1466 10.295 16.9196 10.295 16.7897C10.2826 16.6243 10.1404 16.6612 10.0352 16.6379C9.92576 16.6626 9.76167 16.6079 9.76167 16.7966C9.74253 16.9306 9.92166 17.1507 10.0215 17.1466Z" fill="#ED6879"/>
<path d="M16.3699 13.9866C16.4916 14.0016 16.3481 14.0618 16.3918 14.085C16.4356 14.1083 16.5012 14.085 16.5053 14.0208C16.5094 13.9565 16.4629 13.9565 16.4219 13.9565C16.344 13.9565 16.3426 13.8662 16.2852 13.8444C16.2906 13.9059 16.2988 13.977 16.3699 13.9866Z" fill="#FEFEFE"/>
<path d="M11.2369 15.6616C11.0965 15.6613 10.9617 15.7164 10.8618 15.815C10.7619 15.9136 10.7051 16.0477 10.7036 16.1881C10.7038 16.2593 10.7181 16.3299 10.7458 16.3955C10.7735 16.4612 10.814 16.5207 10.8649 16.5706C10.9158 16.6205 10.9761 16.6597 11.0423 16.6861C11.1085 16.7124 11.1793 16.7254 11.2506 16.7241C11.3868 16.7161 11.5148 16.656 11.6079 16.5562C11.7011 16.4565 11.7524 16.3248 11.7511 16.1883C11.7499 16.0518 11.6963 15.921 11.6013 15.823C11.5064 15.725 11.3774 15.6672 11.241 15.6616H11.2369Z" fill="white"/>
<path d="M8.65828 15.663C8.5529 15.6611 8.44935 15.6906 8.36082 15.7478C8.27229 15.805 8.2028 15.8873 8.16122 15.9841C8.11963 16.0809 8.10782 16.188 8.12731 16.2916C8.1468 16.3951 8.1967 16.4906 8.27064 16.5657C8.34458 16.6408 8.43921 16.6921 8.54247 16.7133C8.64573 16.7344 8.75294 16.7242 8.85042 16.6842C8.9479 16.6441 9.03124 16.5759 9.0898 16.4883C9.14837 16.4006 9.17951 16.2976 9.17926 16.1922C9.18035 16.1231 9.16767 16.0544 9.14198 15.9903C9.11629 15.9261 9.07808 15.8677 9.0296 15.8185C8.98111 15.7692 8.92331 15.7301 8.85956 15.7034C8.79582 15.6767 8.72739 15.663 8.65828 15.663Z" fill="white"/>
</svg>
