<svg width="86" height="86" viewBox="0 0 86 86" fill="none" xmlns="http://www.w3.org/2000/svg">
<path d="M65.9333 45.8667H57.3333V41.5667C57.3333 39.1916 55.4084 37.2667 53.0333 37.2667H45.8666V22.2167C45.8666 21.0314 46.8312 20.0667 48.0166 20.0667H72.3833C75.9393 20.0667 78.8333 17.1728 78.8333 13.6167V0H74.5333V13.6167C74.5333 14.8021 73.5686 15.7667 72.3833 15.7667H48.0167C44.4607 15.7667 41.5667 18.6607 41.5667 22.2167V37.2667H32.9667C30.5916 37.2667 28.6667 39.1916 28.6667 41.5667V45.8667H20.0667C9.00128 45.8667 0 54.868 0 65.9333C0 76.9986 9.00128 86 20.0667 86C26.0509 86 31.6351 83.3599 35.4278 78.8333H50.5724C54.3649 83.3599 59.9492 86 65.9333 86C76.9987 86 86 76.9987 86 65.9333C86 54.8678 76.9987 45.8667 65.9333 45.8667ZM32.9667 41.5667H53.0334V45.8667H32.9667V41.5667ZM65.9333 81.7C60.4006 81.7 55.5416 78.8449 52.7279 74.5333H33.2719C30.4583 78.8447 25.5993 81.7 20.0666 81.7C11.3591 81.7 4.29983 74.6408 4.29983 65.9333C4.29983 57.2258 11.3591 50.1666 20.0666 50.1666H65.9333C74.6408 50.1666 81.7 57.2258 81.7 65.9333C81.7 74.6408 74.6408 81.7 65.9333 81.7Z" fill="#ED6879"/>
<path d="M73.8167 69.5166C75.7957 69.5166 77.4 67.9123 77.4 65.9333C77.4 63.9543 75.7957 62.35 73.8167 62.35C71.8377 62.35 70.2334 63.9543 70.2334 65.9333C70.2334 67.9123 71.8377 69.5166 73.8167 69.5166Z" fill="#00A676"/>
<path d="M56.6167 69.5166C58.5957 69.5166 60.2 67.9123 60.2 65.9333C60.2 63.9543 58.5957 62.35 56.6167 62.35C54.6377 62.35 53.0334 63.9543 53.0334 65.9333C53.0334 67.9123 54.6377 69.5166 56.6167 69.5166Z" fill="#00A676"/>
<path d="M65.2168 61.6333C67.1958 61.6333 68.8001 60.029 68.8001 58.05C68.8001 56.071 67.1958 54.4667 65.2168 54.4667C63.2378 54.4667 61.6335 56.071 61.6335 58.05C61.6335 60.029 63.2378 61.6333 65.2168 61.6333Z" fill="#00A676"/>
<path d="M65.2168 77.4C67.1958 77.4 68.8001 75.7957 68.8001 73.8167C68.8001 71.8377 67.1958 70.2334 65.2168 70.2334C63.2378 70.2334 61.6335 71.8377 61.6335 73.8167C61.6335 75.7957 63.2378 77.4 65.2168 77.4Z" fill="#00A676"/>
<path d="M21.4999 64.5V57.3333H17.1999V64.5H10.0332V68.8H17.1999V75.9667H21.4999V68.8H28.6666V64.5H21.4999Z" fill="#00A676"/>
</svg>
