<svg width="100" height="94" viewBox="0 0 100 94" fill="none" xmlns="http://www.w3.org/2000/svg">
<path d="M52.7454 50.2285C55.7842 48.7954 56.776 44.581 54.9698 40.8369C53.1605 37.0802 49.2282 35.1894 46.1894 36.6224C43.1507 38.0554 42.1589 42.2699 43.9682 46.0266C45.7775 49.7769 49.7098 51.6678 52.7454 50.2285Z" fill="#ED6879"/>
<path d="M61.8524 27.811C64.7739 45.9074 51.7601 59.4726 51.7601 59.4726C51.7601 59.4726 41.031 41.5079 22.9886 36.0862C58.0848 61.4826 38.1095 93.1442 38.1095 93.1442H48.2683C48.2714 93.1442 71.8843 52.8154 61.8524 27.811Z" fill="#00A676"/>
<path d="M42.045 29.8774C41.8486 29.5889 41.6489 29.2816 41.4493 28.943C40.5209 27.3563 40.0963 25.8825 40.0963 25.8825C40.0963 25.8825 41.1673 26.9925 42.0957 28.5698C42.289 28.9053 42.457 29.2346 42.6122 29.5482C42.758 28.7925 42.9291 27.2402 42.1876 25.9608C41.1641 24.208 38.8066 23.6623 38.8066 23.6623C38.8066 23.6623 38.1032 25.9577 39.1267 27.7137C39.8681 28.9931 41.3131 29.6234 42.045 29.8774Z" fill="#ED6879"/>
<path d="M65.3442 43.1886C65.9336 43.6903 67.2074 44.6122 68.6935 44.6122C70.7405 44.6122 72.3945 42.8594 72.3945 42.8594C72.3945 42.8594 70.7436 41.1097 68.6935 41.1097C67.2074 41.1097 65.9336 42.0316 65.3442 42.5333C65.696 42.5082 66.0635 42.4894 66.4596 42.4894C68.3101 42.4894 69.8216 42.8531 69.8216 42.8531C69.8216 42.8531 68.3101 43.2231 66.4596 43.22C66.0604 43.2357 65.696 43.2137 65.3442 43.1886Z" fill="#ED6879"/>
<path d="M57.9103 28.5761C58.8324 26.9894 59.9097 25.8825 59.9097 25.8825C59.9097 25.8825 59.482 27.3626 58.5536 28.9493C58.3571 29.2817 58.1575 29.5952 57.9547 29.8837C58.6962 29.6297 60.1379 28.9963 60.8762 27.7263C61.9028 25.9671 61.2057 23.6686 61.2057 23.6686C61.2057 23.6686 58.8419 24.2236 57.8216 25.9703C57.0801 27.2434 57.2449 28.7925 57.3938 29.5576C57.5396 29.2409 57.7107 28.9116 57.9103 28.5761Z" fill="#ED6879"/>
<path d="M49.1744 19.0246C49.1744 14.945 50.0014 11.643 50.0014 11.643C50.0014 11.643 50.8316 14.9512 50.8316 19.0246C50.8316 19.8869 50.7904 20.7022 50.727 21.4736C51.8614 20.1785 53.9306 17.372 53.9306 14.0983C53.9306 9.59536 50.0014 5.94849 50.0014 5.94849C50.0014 5.94849 46.0723 9.59536 46.0723 14.0983C46.0723 17.372 48.1414 20.1754 49.2726 21.4736C49.2156 20.7022 49.1744 19.89 49.1744 19.0246Z" fill="#ED6879"/>
<path d="M22.8682 31.8498C25.7358 33.4867 29.2214 33.1135 30.9229 32.7905C30.2195 32.4644 29.4812 32.0818 28.7302 31.6554C25.1623 29.6202 22.6844 27.259 22.6844 27.259C22.6844 27.259 25.9893 28.1997 29.5572 30.238C30.3114 30.6707 31.0053 31.1097 31.6517 31.5519C31.0877 29.9276 29.6713 26.7542 26.8005 25.1173C22.865 22.8627 17.7064 24.4055 17.7064 24.4055C17.7064 24.4055 18.9295 29.6014 22.8682 31.8498Z" fill="#ED6879"/>
<path d="M77.1316 53.8721C74.2671 52.2384 70.7816 52.6053 69.08 52.9283C69.7866 53.2575 70.5217 53.6401 71.2759 54.0665C74.8406 56.1048 77.3217 58.4628 77.3217 58.4628C77.3217 58.4628 74.0168 57.5253 70.4457 55.487C69.6915 55.0512 68.9976 54.6121 68.3544 54.17C68.9184 55.7943 70.3348 58.9646 73.1993 60.6014C77.1347 62.856 82.2965 61.3132 82.2965 61.3132C82.2965 61.3132 81.0671 56.1204 77.1316 53.8721Z" fill="#ED6879"/>
<path d="M31.6455 54.1795C30.9991 54.6154 30.3083 55.0544 29.5542 55.4903C25.9863 57.5222 22.6782 58.4724 22.6782 58.4724C22.6782 58.4724 25.1561 56.108 28.724 54.0698C29.4813 53.6339 30.2164 53.267 30.9199 52.9315C29.2215 52.6053 25.7296 52.2322 22.8651 53.8753C18.9265 56.1237 17.697 61.3165 17.697 61.3165C17.697 61.3165 22.8556 62.8593 26.7943 60.611C29.6651 58.9678 31.0815 55.7976 31.6455 54.1795Z" fill="#ED6879"/>
<path d="M68.3574 31.5393C69.0007 31.1034 69.6946 30.6644 70.4551 30.2317C74.0198 28.1935 77.3248 27.2528 77.3248 27.2528C77.3248 27.2528 74.85 29.614 71.2789 31.6491C70.5248 32.0818 69.7865 32.4581 69.0894 32.7842C70.7846 33.1103 74.2765 33.4866 77.1347 31.8435C81.0765 29.592 82.3028 24.3992 82.3028 24.3992C82.3028 24.3992 77.1473 22.8596 73.2118 25.1111C70.3378 26.7479 68.9183 29.9213 68.3574 31.5393Z" fill="#ED6879"/>
<path d="M34.6682 18.5134C34.0789 17.6573 33.48 16.7354 32.8938 15.732C30.1307 11.0033 28.8537 6.61325 28.8537 6.61325C28.8537 6.61325 32.0541 9.89951 34.814 14.6407C35.4002 15.6379 35.904 16.6131 36.354 17.5507C36.7976 15.2961 37.3014 10.6709 35.0833 6.87038C32.0351 1.6431 25.0006 0.0125122 25.0006 0.0125122C25.0006 0.0125122 22.9125 6.8547 25.9608 12.0788C28.1788 15.8825 32.4819 17.7608 34.6682 18.5134Z" fill="#ED6879"/>
<path d="M65.3379 67.2116C65.9273 68.0677 66.5325 68.9864 67.1155 69.9868C69.8818 74.7343 71.1556 79.1118 71.1556 79.1118C71.1556 79.1118 67.9552 75.8224 65.189 71.0874C64.6059 70.084 64.0989 69.1087 63.649 68.1774C63.2149 70.432 62.7079 75.0479 64.9228 78.8515C67.9742 84.0757 75.0055 85.7126 75.0055 85.7126C75.0055 85.7126 77.1032 78.8641 74.0517 73.6399C71.8273 69.8394 67.5274 67.9611 65.3379 67.2116Z" fill="#ED6879"/>
<path d="M17.7064 43.9632C12.1834 43.9632 7.70608 42.8594 7.70608 42.8594C7.70608 42.8594 12.1834 41.7556 17.7064 41.7556C18.8788 41.7556 19.9847 41.8183 21.0272 41.8936C19.2749 40.3884 15.4788 37.6415 11.0364 37.6415C4.943 37.6446 -0.00012207 42.8594 -0.00012207 42.8594C-0.00012207 42.8594 4.94617 48.0773 11.0364 48.0741C15.4757 48.0741 19.2717 45.3304 21.024 43.8283C19.9815 43.9067 18.8725 43.9632 17.7064 43.9632Z" fill="#ED6879"/>
<path d="M88.9664 37.6541C84.5303 37.6541 80.7342 40.3885 78.9788 41.8999C80.0244 41.8215 81.1335 41.7619 82.2964 41.7651C87.8225 41.7651 92.2967 42.8657 92.2967 42.8657C92.2967 42.8657 87.8225 43.9695 82.3027 43.9695C81.1335 43.9695 80.0244 43.9099 78.9788 43.8347C80.731 45.3367 84.5303 48.0804 88.9664 48.0804C95.0629 48.0804 99.9997 42.872 99.9997 42.872C99.9997 42.872 95.0566 37.6478 88.9664 37.6541Z" fill="#ED6879"/>
<path d="M34.8173 71.0906C32.0542 75.8255 28.8539 79.1149 28.8539 79.1149C28.8539 79.1149 30.1277 74.7249 32.8907 69.99C33.4801 68.9928 34.079 68.074 34.6715 67.2086C32.4788 67.9611 28.1758 69.8426 25.9577 73.6462C22.9063 78.8703 24.9976 85.7188 24.9976 85.7188C24.9976 85.7188 32.0352 84.0882 35.0835 78.8641C37.3047 75.0604 36.8009 70.4321 36.3604 68.1838C35.901 69.1119 35.3972 70.0778 34.8173 71.0906Z" fill="#ED6879"/>
<path d="M65.1887 14.6314C67.9486 9.89639 71.149 6.61013 71.149 6.61013C71.149 6.61013 69.8752 10.997 67.1089 15.7289C66.5259 16.7229 65.927 17.6511 65.3377 18.5072C67.5272 17.7577 71.8303 15.8763 74.0452 12.0757C77.0966 6.85158 75.0053 -3.05176e-05 75.0053 -3.05176e-05C75.0053 -3.05176e-05 67.974 1.63369 64.9226 6.85785C62.695 10.6615 63.202 15.2867 63.6424 17.5382C64.0987 16.6132 64.5994 15.6379 65.1887 14.6314Z" fill="#ED6879"/>
</svg>
