<svg width="321" height="321" viewBox="0 0 321 321" fill="none" xmlns="http://www.w3.org/2000/svg">
<path d="M171.528 164.725C172.551 164.077 173.341 163.119 173.781 161.991C174.221 160.863 174.288 159.624 173.973 158.454C173.035 156.887 172.716 155.025 173.08 153.234C173.27 152.61 173.244 151.94 173.009 151.332C172.773 150.724 172.34 150.212 171.779 149.879C171.316 149.472 170.949 148.966 170.705 148.4C170.461 147.833 170.346 147.22 170.368 146.603C170.196 144.941 169.96 143.374 167.891 143.013C167.139 142.888 166.904 142.057 166.731 141.791C166.326 141.034 165.98 140.248 165.696 139.439C165.489 139.014 165.259 138.601 165.007 138.201C164.904 138.31 164.815 138.431 164.74 138.561C164.448 139.108 164.344 139.736 164.442 140.348C164.393 141.42 164.574 142.489 164.975 143.484C165.563 144.238 166.328 144.835 167.201 145.224C167.369 145.281 167.524 145.372 167.657 145.491C167.789 145.609 167.896 145.753 167.972 145.914C168.048 146.075 168.091 146.249 168.099 146.427C168.107 146.604 168.079 146.781 168.017 146.948C167.958 147.847 167.817 148.74 167.593 149.613C167.045 151.102 167.766 151.776 168.957 152.262C169.581 152.488 170.107 152.925 170.442 153.498C170.777 154.071 170.9 154.743 170.791 155.397C170.791 156.557 170.321 157.968 171.403 158.877C171.746 159.111 172.036 159.414 172.254 159.767C172.472 160.12 172.613 160.515 172.668 160.927C172.723 161.338 172.69 161.756 172.572 162.154C172.454 162.552 172.253 162.921 171.983 163.235C171.761 163.692 171.602 164.178 171.512 164.678V164.678L171.528 164.725Z" fill="#FEFEFE"/>
<path d="M127.368 144.565C125.744 139.526 123.573 134.679 120.894 130.112C118.583 125.995 114.874 122.841 110.438 121.223C108.432 120.487 106.362 119.938 104.356 119.217C103.946 119.15 103.559 118.982 103.23 118.728C102.901 118.475 102.641 118.144 102.471 117.765C102.302 117.386 102.229 116.97 102.26 116.556C102.291 116.142 102.424 115.742 102.647 115.392C102.961 114.608 103.4 113.824 103.933 112.79C101.315 113.904 98.8917 115.428 96.753 117.304C95.7497 118.135 94.6524 119.154 93.3356 118.073C92.0188 116.991 92.7556 115.69 93.3356 114.53C94.2448 112.633 95.2481 110.783 96.4708 108.541C93.3561 110.179 90.6296 112.467 88.476 115.251C87.8176 116.019 87.1592 116.818 85.9992 116.176C84.8392 115.533 84.9489 114.608 85.1057 113.652C85.3094 112.319 85.6386 111.003 85.9051 109.67L85.5759 109.513C85.2275 109.875 84.9078 110.262 84.6197 110.673C81.1396 116.489 76.5465 120.91 69.8528 122.916C68.2224 123.462 66.8679 124.62 66.0748 126.146C61.1399 134.509 57.2843 143.463 54.5999 152.795C53.9969 155.248 52.8624 157.538 51.2766 159.504C48.737 162.64 46.0407 165.65 43.6893 168.91C40.3817 173.456 38.4535 178.614 39.3941 184.241C40.8049 192.738 45.7429 198.82 53.2831 202.865C54.255 203.398 54.7096 203.068 55.3367 202.316C56.5096 200.689 58.0826 199.393 59.9034 198.553C61.7242 197.712 63.7312 197.356 65.73 197.519C66.5095 197.531 67.2745 197.307 67.9246 196.876C71.0988 195.145 74.8271 194.734 78.3022 195.732C80.9201 196.469 83.5694 197.127 86.1403 197.942C86.721 198.148 87.3416 198.217 87.9534 198.144C88.5653 198.071 89.1519 197.857 89.6674 197.519C91.1819 196.625 92.9091 196.153 94.6681 196.155C104.331 195.93 113.705 192.818 121.584 187.22C123.536 186.003 125.221 184.403 126.538 182.517C130.165 177.271 132.565 171.275 133.561 164.975C134.047 161.292 134.219 157.451 131.993 154.237C129.999 151.25 128.442 147.993 127.368 144.565V144.565ZM92.0658 167.813C93.2729 168.079 94.9032 167.656 95.0443 169.553C95.154 171.121 93.1162 173.613 91.9091 173.644C90.702 173.676 88.7739 171.168 88.7739 169.631C88.9933 167.468 90.8118 168.095 92.0658 167.813ZM73.0507 171.904C70.4407 171.872 67.8769 171.211 65.5765 169.978C63.2761 168.745 61.3069 166.975 59.8357 164.819C58.1876 162.524 57.4878 159.683 57.882 156.885C58.2762 154.088 59.734 151.551 61.952 149.801C69.0376 143.813 81.3747 145.412 86.7046 152.936C87.5778 154.111 88.2102 155.448 88.5655 156.868C88.9208 158.288 88.992 159.765 88.775 161.213C88.5579 162.661 88.057 164.051 87.3008 165.305C86.5447 166.559 85.5483 167.651 84.3689 168.518C81.1213 170.962 77.1067 172.163 73.0507 171.904V171.904ZM96.8471 184.163C95.7838 185.141 94.4299 185.743 92.9919 185.879C91.554 186.015 90.1111 185.677 88.8836 184.915C89.0779 187.742 88.6994 190.579 87.7706 193.255C87.3787 194.353 86.8144 195.199 85.5289 194.823C84.2435 194.447 84.2591 193.349 84.6197 192.283C85.5268 189.576 85.816 186.699 85.4662 183.865C85.3868 182.446 84.8758 181.085 84.0017 179.965C83.1277 178.844 81.9322 178.017 80.5753 177.595C79.4936 177.171 78.3649 176.686 78.8822 175.275C79.3995 173.864 80.638 174.068 81.8293 174.538C83.3385 174.958 84.6872 175.821 85.7013 177.015C87.0589 178.786 88.808 180.218 90.8118 181.2C91.3517 181.569 92.0011 181.744 92.6533 181.696C93.3056 181.647 93.9221 181.379 94.4016 180.934C95.4049 180.134 96.4238 179.915 97.3017 180.934C97.5016 181.168 97.6494 181.443 97.7354 181.739C97.8215 182.035 97.8437 182.345 97.8008 182.651C97.7578 182.956 97.6506 183.248 97.4862 183.509C97.3218 183.77 97.104 183.993 96.8471 184.163V184.163ZM123.371 165.07C118.276 172.108 106.927 173.974 99.8569 168.942C93.7432 164.615 93.1005 156.793 98.399 151.212C101.534 147.841 106.237 145.929 113.26 145.945C115.221 146.062 117.135 146.592 118.877 147.5C120.62 148.407 122.151 149.672 123.371 151.212C124.965 153.169 125.835 155.616 125.835 158.141C125.835 160.665 124.965 163.112 123.371 165.07V165.07Z" fill="white"/>
<path d="M248.749 187.863C250.881 187.863 252.934 186.875 254.941 187.345C256.228 187.367 257.516 187.314 258.797 187.189C260.365 186.922 260.819 186.389 259.894 184.916C258.202 182.004 256.79 178.939 255.678 175.761C253.452 170.18 251.743 164.411 249.125 158.972C246.997 154.976 245.174 150.826 243.67 146.556C242.043 141.704 239.815 137.075 237.039 132.777C236.727 132.295 236.3 131.9 235.796 131.626C235.292 131.352 234.728 131.209 234.154 131.209C231.771 130.927 229.342 131.303 226.99 130.896C224.905 130.535 223.965 131.335 223.197 133.278C218.682 144.832 214.982 156.683 210.138 168.126C207.599 174.115 205.436 180.228 202.52 186.091C202.144 186.859 202.3 187.502 203.382 187.502C204.608 187.398 205.843 187.467 207.05 187.706C208.794 188.2 210.586 188.505 212.396 188.615C212.761 188.69 213.138 188.685 213.502 188.602C213.865 188.52 214.207 188.36 214.503 188.134C214.8 187.909 215.046 187.622 215.223 187.294C215.4 186.966 215.505 186.604 215.531 186.232C216.168 183.857 217.029 181.547 218.102 179.335C218.39 178.617 218.879 177.997 219.51 177.55C220.141 177.102 220.888 176.846 221.66 176.811C228.088 175.855 234.499 177.266 240.911 176.811C241.333 176.77 241.757 176.88 242.107 177.12C242.457 177.361 242.711 177.718 242.823 178.128C243.842 180.683 244.61 183.348 245.692 185.966C245.896 186.592 246.314 187.126 246.874 187.473C247.433 187.82 248.097 187.958 248.749 187.863V187.863ZM235.142 164.098C232.007 164.098 228.95 164.004 225.846 163.972C225.266 163.972 224.78 163.972 225.062 163.141C226.63 158.439 228.432 153.877 230.502 149.315C230.753 149.55 230.941 149.644 231.019 149.801C232.853 153.783 235.142 157.529 236.694 161.621C237.509 163.706 237.368 164.051 235.142 164.098Z" fill="#ED6879"/>
<path d="M197.989 184.978C198.131 182.329 198.162 179.664 198.334 177.015C198.444 175.447 197.833 174.867 196.218 174.898C190.825 175.008 185.433 174.898 180.04 175.024C178.347 175.024 177.924 174.397 177.673 172.814C177.383 169.586 177.383 166.338 177.673 163.11C177.673 161.887 178.128 161.542 179.241 161.636C183.395 161.636 187.549 161.636 191.782 161.48C196.014 161.323 196.782 160.069 196.171 156.087C196.175 155.373 196.123 154.661 196.014 153.955C195.607 152.811 195.858 151.055 194.227 150.82C191.58 150.205 188.872 149.894 186.154 149.895C184.067 150.045 181.971 150.045 179.884 149.895C176.607 149.723 176.592 149.676 176.889 146.368C177.057 145.477 177.172 144.576 177.234 143.672C177.234 142.104 177.924 141.759 179.398 141.743C184.1 141.743 188.803 141.571 193.412 141.399C195.701 141.399 196.406 140.599 196.547 138.263C196.618 136.319 196.587 134.373 196.453 132.432C196.359 131.256 195.983 130.175 194.447 130.018C186.504 129.124 178.494 128.982 170.525 129.594C169.265 129.884 167.977 130.026 166.684 130.018C163.784 129.594 163.345 130.018 163.345 132.918C163.345 133.639 163.345 134.344 163.345 135.065L163.784 135.787C164.458 136.037 164.474 137.056 165.352 137.072C165.822 137.072 166.355 137.26 166.308 137.809C166.308 137.809 166.308 138.216 166.104 138.342C165.9 138.467 165.9 138.342 165.665 138.342C165.43 138.342 165.446 138.342 165.383 138.342C165.32 138.342 165.211 138.546 165.179 138.671C165.234 138.856 165.307 139.034 165.399 139.204C165.461 139.321 165.534 139.431 165.618 139.533C165.878 140.319 166.259 141.059 166.747 141.728C167.06 142.167 167.264 142.841 167.907 142.951C169.976 143.311 170.211 144.879 170.384 146.54C170.362 147.157 170.477 147.77 170.721 148.337C170.965 148.904 171.332 149.409 171.795 149.817C172.356 150.15 172.789 150.661 173.024 151.269C173.26 151.878 173.285 152.547 173.096 153.171C172.732 154.962 173.05 156.824 173.989 158.392C174.304 159.561 174.237 160.8 173.797 161.928C173.357 163.057 172.567 164.014 171.544 164.662C172.242 165.591 172.63 166.717 172.652 167.879C172.675 169.041 172.331 170.181 171.669 171.136C171.06 172.425 170.821 173.858 170.979 175.275C170.979 176.231 170.619 176.842 169.663 177.124C168.001 177.516 167.045 179.194 165.352 179.507C164.693 179.507 164.505 179.915 164.521 180.542C164.521 181.576 164.521 182.611 164.521 183.677C164.521 186.389 165.195 187.016 167.954 187.283C171.654 187.643 175.369 187.486 179.068 187.58C184.699 187.751 190.335 187.536 195.936 186.938C197.362 186.828 197.927 186.201 197.989 184.978Z" fill="#ED6879"/>
<path d="M128.325 84.2435C127.09 83.8184 125.76 83.7549 124.491 84.0604C123.222 84.3659 122.066 85.0277 121.161 85.9678C119.303 87.8228 117.851 90.0435 116.897 92.4891C113.605 100.029 110.83 107.773 108.024 115.502C107.663 116.458 107.758 116.913 108.886 117.242C113.819 118.486 118.217 121.29 121.427 125.237C121.525 125.044 121.608 124.845 121.678 124.641C121.639 119.749 122.981 114.946 125.55 110.783C126.052 110.031 125.55 109.513 125.33 108.996C123.857 105.61 121.96 102.412 120.769 98.9006C120.33 97.6152 119.295 95.9849 121.27 95.2324C123.246 94.48 123.434 96.3768 123.967 97.5525C126.318 102.82 128.34 108.244 131.805 112.915C134.407 116.411 136.931 119.954 139.517 123.449C141.23 125.893 143.15 128.185 145.255 130.3C146.258 131.256 147.246 132.886 148.704 132.416C150.161 131.946 150.208 130.112 150.491 128.811C151.899 121.053 151.399 113.069 149.033 105.547C145.945 94.7151 139.157 87.5511 128.325 84.2435Z" fill="white"/>
<path d="M43.1093 127.745C46.464 123.277 49.7246 118.762 53.0166 114.248C55.3913 111.086 57.356 107.635 58.8638 103.98C59.8044 101.644 60.8547 99.2769 61.8266 97.0039C62.2812 95.8909 62.9239 94.9346 64.2721 95.4362C65.6202 95.9379 65.4008 97.1763 65.0402 98.2579C64.6546 99.4293 64.2099 100.58 63.7077 101.707C62.5477 104.309 61.325 106.88 60.1493 109.545C59.9141 110.046 59.6319 110.517 60.1493 111.112C62.6418 114.577 63.4412 118.637 64.1153 123.026C65.7932 121.328 67.7913 119.98 69.9939 119.06C71.875 118.198 73.7561 117.32 75.6686 116.521C75.9957 116.451 76.3014 116.304 76.5604 116.093C76.8193 115.881 77.024 115.611 77.1574 115.304C77.2908 114.997 77.349 114.663 77.3273 114.33C77.3056 113.996 77.2045 113.672 77.0324 113.385C74.4616 106.598 71.828 99.8412 68.9279 93.1946C67.9305 90.6494 66.4021 88.3461 64.4445 86.4381C63.5813 85.5026 62.4724 84.8287 61.2444 84.4933C60.0165 84.1579 58.7189 84.1745 57.5 84.5413C49.5052 86.9711 43.1407 91.4859 39.3157 99.0261C35.4615 106.929 33.7943 115.719 34.4874 124.484C34.572 127.018 35.1026 129.518 36.0551 131.868C36.6507 133.216 37.3875 133.435 38.5632 132.495C40.2822 131.12 41.8109 129.522 43.1093 127.745V127.745Z" fill="white"/>
<path d="M286.654 130.425H266.808V130.927H257.261C256.508 130.927 255.474 130.77 255.442 131.868C255.186 135.232 255.26 138.613 255.662 141.963C255.866 143.17 256.587 143.531 257.606 143.201C259.265 142.883 260.966 142.846 262.638 143.092C265.616 143.342 265.867 143.499 266.29 146.478C267.294 153.595 266.933 160.806 267.435 167.954C267.874 174.099 267.043 180.244 267.435 186.405C267.435 187.361 267.435 188.239 268.783 188.207C272.232 188.113 275.665 188.082 279.113 188.066C280.007 188.066 280.305 187.722 280.399 186.797C281.261 178.034 280.399 169.302 279.756 160.586C279.364 155.209 279.49 149.848 279.129 144.487C279.129 143.468 279.458 143.013 280.54 142.919C282.525 142.607 284.536 142.496 286.544 142.59C288.111 142.59 289.005 142.057 289.083 140.427C289.209 137.558 288.848 134.721 288.707 131.883C288.644 130.425 287.704 130.41 286.654 130.425Z" fill="#ED6879"/>
<path d="M216.33 126.365C218.776 126.02 221.033 127.274 223.447 127.102C223.919 127.137 224.386 126.996 224.759 126.706C225.133 126.417 225.386 125.999 225.47 125.534C225.94 123.967 226.661 122.399 227.21 120.832C227.447 120.098 227.909 119.458 228.531 119.002C229.153 118.546 229.903 118.297 230.674 118.292C234.969 117.665 239.233 118.794 243.497 118.292C243.866 118.214 244.248 118.218 244.616 118.302C244.984 118.387 245.329 118.551 245.627 118.782C245.925 119.013 246.17 119.306 246.343 119.641C246.517 119.976 246.615 120.345 246.632 120.722C246.915 122.289 247.792 123.591 248.2 125.064C248.608 126.538 249.47 126.632 250.693 126.632C252.26 126.632 253.828 125.832 255.082 126.146C256.273 126.146 257.057 126.146 257.825 126.146C259.173 126.146 259.612 125.581 258.797 124.327C257.666 122.437 256.731 120.435 256.007 118.355C254.032 113.244 252.339 108.008 249.94 103.055C248.637 100.674 247.536 98.1887 246.648 95.6243C245.514 92.1132 243.933 88.7624 241.945 85.6543C241.679 85.1389 241.266 84.7145 240.758 84.4353C240.25 84.156 239.67 84.0347 239.092 84.0867C237.41 84.2415 235.716 84.1994 234.044 83.9613C232.398 83.6321 231.897 84.3375 231.395 85.623C227.946 94.4016 225.125 103.4 221.472 112.1C219.638 116.427 217.851 120.785 216.017 125.111C215.703 125.707 215.609 126.459 216.33 126.365ZM232.79 107.773C234.044 104.434 235.22 101.048 236.96 97.4584C238.606 100.923 240.095 104.089 241.663 107.287C242.118 108.306 241.663 108.855 240.519 108.855C238.199 108.855 235.816 108.761 233.574 108.698C232.869 108.73 232.555 108.432 232.806 107.773H232.79Z" fill="#ED6879"/>
<path d="M103.854 218.933C103.666 217.376 104.005 215.8 104.818 214.459C105.631 213.117 106.87 212.087 108.338 211.534C109.828 211.024 111.376 210.703 112.946 210.577C111.563 208.998 109.713 207.9 107.664 207.442C97.6622 204.699 87.6608 201.924 77.6594 199.197C75.8186 198.545 73.8099 198.545 71.969 199.197L73.5366 200.294C77.7692 203.429 78.5216 207.019 75.7783 211.518C75.6546 211.735 75.5896 211.981 75.5896 212.231C75.5896 212.481 75.6546 212.727 75.7783 212.944C76.2046 214.116 76.2508 215.391 75.9102 216.59C75.5697 217.789 74.8598 218.85 73.8815 219.623C73.5736 219.832 73.3367 220.13 73.2023 220.477C73.0679 220.824 73.0423 221.204 73.129 221.566C73.3015 222.538 73.9599 222.617 74.6966 222.789L99.2768 229.53C99.9352 229.702 100.547 230.126 101.174 229.295C101.442 229.034 101.626 228.699 101.701 228.333C101.777 227.967 101.74 227.586 101.597 227.241C101.134 226.083 101.053 224.808 101.366 223.601C101.679 222.394 102.369 221.318 103.337 220.532C103.566 220.342 103.736 220.091 103.828 219.807C103.92 219.524 103.929 219.221 103.854 218.933Z" fill="white"/>
<path d="M163.032 108.933C162.671 114.389 163.282 119.907 163.235 125.268C163.235 126.538 163.486 127.165 165.054 126.71C167.029 126.037 169.136 125.849 171.199 126.161C172.343 126.381 172.422 126.271 172.406 125.158C172.28 120.753 172.28 116.332 172.296 111.927C172.296 109.027 172.563 109.137 175.431 108.792C182.846 107.852 187.737 104.873 189.336 97.9757C189.753 96.6059 189.87 95.1625 189.68 93.7433C189.489 92.3242 188.996 90.9626 188.233 89.7509C187.471 88.5391 186.456 87.5056 185.259 86.7203C184.062 85.9351 182.71 85.4165 181.294 85.1997C176.043 84.024 170.713 84.3375 165.43 84.071C163 83.9613 162.781 84.071 162.953 86.5949C163.378 94.0343 163.405 101.491 163.032 108.933ZM175.165 93.3513C176.447 93.5421 177.631 94.1478 178.535 95.0757C178.897 95.4029 179.167 95.8199 179.316 96.2845C179.466 96.7491 179.49 97.2449 179.387 97.722C179.283 98.199 179.056 98.6403 178.728 99.0014C178.399 99.3625 177.981 99.6305 177.516 99.7785L176.983 99.998C173.629 101.158 172.672 100.578 172.28 97.1449C172.28 96.6276 172.28 96.1103 172.28 95.5773C172.171 92.7399 172.296 92.6459 175.196 93.3513H175.165Z" fill="#ED6879"/>
<path d="M265.193 105.171C265.684 105.913 265.931 106.79 265.898 107.679C265.898 113.589 265.898 119.483 265.742 125.393C265.742 126.208 265.851 126.663 266.729 126.632C269.316 126.632 271.918 126.538 274.567 126.412C275.226 126.412 275.884 126.193 275.868 125.127C275.743 120.424 275.962 115.721 275.602 111.144C275.431 108.324 276.203 105.528 277.796 103.196C281.01 97.8817 284.678 92.834 287.594 87.3317C288.644 85.3565 288.299 84.6354 286.026 84.51C284.215 84.4349 282.409 84.2569 280.618 83.977C279.927 83.7882 279.191 83.8536 278.543 84.1614C277.896 84.4692 277.381 84.9989 277.091 85.6543C274.865 89.6204 272.592 93.4924 270.319 97.5525C269.708 97.2546 269.614 96.5649 269.331 95.9849C267.654 92.6459 265.93 89.3069 264.237 85.9678C263.327 84.1651 262.136 83.1775 259.91 83.9143C258.707 84.1806 257.47 84.2652 256.242 84.1651C253.561 84.1651 253.279 84.4943 254.549 86.9241C257.747 93.1945 261.493 99.1671 265.193 105.171Z" fill="#ED6879"/>
<path d="M192.675 124.735C192.675 125.597 192.581 126.303 193.772 126.303C200.043 126.303 206.272 126.376 212.458 126.522C213.258 126.522 213.665 126.271 213.634 125.409C213.634 123.199 213.54 120.988 213.524 118.794C213.524 117.602 213.054 117.226 211.769 117.085C209.182 116.881 206.596 116.865 203.931 116.881C202.974 116.881 202.692 116.646 202.598 115.596C202.295 111.524 202.337 107.433 202.724 103.368C203.1 98.0071 202.724 92.6615 202.724 87.3003C202.727 86.5242 202.61 85.7523 202.379 85.0116C202.332 84.7259 202.178 84.469 201.947 84.294C201.717 84.119 201.428 84.0391 201.14 84.071C198.993 84.071 196.845 84.071 194.713 84.071C193.945 84.071 193.145 84.2121 192.973 85.2624C192.77 86.295 192.67 87.3453 192.675 88.3976C193.224 94.6681 192.801 100.939 192.926 107.209C192.659 113.056 192.487 118.888 192.675 124.735Z" fill="#ED6879"/>
<path d="M271.291 217.647C269.253 211.565 266.181 205.922 263.97 199.918C262.794 196.782 260.96 194.87 257.198 195.419C255.928 195.607 255.333 195.842 254.878 197.08C251.523 206.016 248.435 215.045 244.359 223.918C245.3 223.918 245.927 223.918 246.585 224.059C250.41 224.764 250.536 224.827 251.774 221.3C251.985 220.385 252.537 219.585 253.318 219.063C254.099 218.542 255.049 218.338 255.975 218.494C258.179 218.611 260.387 218.611 262.591 218.494C262.939 218.434 263.296 218.448 263.639 218.534C263.982 218.621 264.303 218.779 264.581 218.998C264.858 219.217 265.087 219.491 265.252 219.804C265.417 220.117 265.514 220.461 265.538 220.814C266.228 223.949 266.666 224.2 269.927 223.949C270.319 223.949 270.711 223.949 271.103 223.949C274.097 223.949 274.066 223.949 272.843 221.378C272.256 220.165 271.738 218.919 271.291 217.647V217.647ZM260.96 212.302C260.506 212.302 260.051 212.302 259.597 212.302C255.693 212.302 255.693 212.302 257.12 208.524C257.574 207.332 258.107 206.141 258.781 204.495C259.957 206.925 260.96 208.931 261.917 210.969C262.261 211.784 262.026 212.364 260.96 212.302Z" fill="#ED6879"/>
<path d="M176.419 212.788C176.106 212.286 175.431 211.722 176.419 211.22C178.504 210.311 179.115 208.32 179.789 206.517C181.153 202.833 178.817 195.544 172.657 195.904C170.337 196.03 167.954 195.904 165.665 195.904C162.201 196.061 162.201 196.108 162.169 199.714C162.169 206.925 163.282 214.073 162.938 221.284C162.796 224.122 163.565 224.764 166.433 224.702C167.076 224.702 167.719 224.451 168.346 224.466C169.38 224.466 169.631 224.106 169.584 223.071C169.7 219.636 169.49 216.198 168.957 212.803C170.006 213.539 170.826 214.555 171.324 215.735C172.625 218.18 173.801 220.704 175.071 223.165C175.337 223.698 175.541 224.372 176.482 224.184C177.745 223.914 179.031 223.767 180.322 223.745C181.984 223.745 182.141 223.056 181.514 221.77C179.992 218.679 178.29 215.68 176.419 212.788V212.788ZM171.199 206.517C168.816 206.784 169.208 205.2 169.255 203.492C169.427 202.865 168.377 201.313 170.556 201.36C172.484 201.36 174.663 202.614 174.726 203.837C174.789 205.059 173.19 206.251 171.199 206.47V206.517Z" fill="#ED6879"/>
<path d="M199.714 217.757H196.406C191.029 217.757 191.061 217.757 191.405 212.411C191.405 211.345 191.75 210.938 192.863 210.969C194.744 210.969 196.626 210.844 198.507 210.812C199.761 210.812 200.858 210.687 200.874 208.978C200.874 206.376 200.435 205.686 198.616 205.263C196.689 205.076 194.753 204.997 192.816 205.028C191.719 204.903 190.763 204.918 190.998 203.335C191.202 202.018 191.108 200.764 193.083 200.889C195.058 201.015 196.72 200.748 198.538 200.733C199.965 200.733 201.078 200.56 201.093 198.679C201.093 195.544 200.889 194.98 198.648 194.854C194.619 194.619 190.606 194.854 186.593 194.854C183.959 194.854 184.179 195.999 184.241 197.739C184.477 203.884 184.665 210.044 184.868 216.205H184.79C184.79 218.149 184.868 220.108 184.79 222.052C184.79 223.4 185.323 223.949 186.561 223.996C190.406 224.317 194.27 224.317 198.115 223.996C201.579 223.557 201.579 223.589 201.877 220.14C202.081 217.788 202.05 217.757 199.714 217.757Z" fill="#ED6879"/>
<path d="M240.236 217.726C239.193 217.797 238.145 217.797 237.101 217.726C231.552 217.726 231.583 217.726 231.912 212.223C231.912 211.157 232.336 210.938 233.292 210.938C235.236 210.938 237.18 210.828 239.123 210.765C240.299 210.765 241.459 210.624 241.302 209.01C241.146 207.395 241.835 205.702 239.359 205.247C237.211 204.84 235.095 205.247 232.963 204.981C231.803 204.856 231.285 204.526 231.536 203.413C231.787 202.3 231.207 200.937 233.104 200.952C235.001 200.968 237.117 200.764 239.139 200.764C240.566 200.764 241.491 200.419 241.491 198.726C241.491 195.497 241.318 195.074 239.28 194.886C234.758 194.65 230.227 194.65 225.705 194.886C224.89 194.886 224.701 195.466 224.654 196.014C224.592 196.854 224.592 197.698 224.654 198.538C224.874 204.641 225.104 210.734 225.344 216.816H225.25C225.25 218.635 225.25 220.453 225.25 222.272C225.25 223.432 225.72 223.996 226.818 224.043C230.659 224.404 234.524 224.435 238.371 224.137C242.024 223.667 241.961 223.62 242.384 220.077C242.619 218.212 242.102 217.475 240.236 217.726Z" fill="#ED6879"/>
<path d="M73.1919 205.044C70.7307 201.203 64.0684 199.808 60.3375 202.347C58.0449 204.121 56.2962 206.503 55.2902 209.222C54.2842 211.94 54.0614 214.887 54.647 217.726C56.0736 223.056 63.0024 226.379 67.7209 223.996C69.7588 222.977 69.9783 221.99 68.5988 220.202C67.8923 219.546 67.313 218.765 66.8901 217.898C68.8653 217.302 71.4989 218.243 72.2827 215.578C73.0665 212.913 70.0566 212.662 68.8026 210.875C69.8372 210.515 70.7307 210.201 71.6243 209.856C72.0929 209.703 72.5187 209.441 72.8671 209.092C73.2155 208.743 73.4767 208.317 73.6294 207.848C73.7822 207.379 73.8221 206.881 73.7461 206.393C73.6701 205.906 73.4802 205.444 73.1919 205.044Z" fill="white"/>
<path d="M109.89 214.763C109.338 214.904 108.833 215.188 108.426 215.587C108.02 215.986 107.726 216.485 107.575 217.035C107.423 217.584 107.42 218.163 107.565 218.714C107.71 219.265 107.998 219.768 108.4 220.171C108.949 220.861 109.733 221.394 109.968 222.303C108.306 223.259 105.579 221.723 104.811 224.466C104.042 227.21 107.021 227.711 108.212 229.279C107.773 229.796 107.146 229.828 106.645 230.031C103.118 231.301 102.82 232.822 105.594 235.487C109.623 239.359 117.038 238.465 120.314 233.653C121.495 231.934 122.312 229.992 122.717 227.946C123.121 225.9 123.104 223.793 122.666 221.754C122.392 220.394 121.824 219.11 121.002 217.993C120.179 216.875 119.122 215.951 117.905 215.284C116.688 214.618 115.34 214.227 113.955 214.136C112.57 214.046 111.183 214.26 109.89 214.763V214.763Z" fill="white"/>
<path d="M216.957 196.265C213.758 195.767 210.523 195.526 207.285 195.544C204.808 195.419 204.526 195.701 204.777 198.115C205.119 203.335 205.119 208.571 204.777 213.791C204.683 216.926 204.965 220.061 205.044 223.306C205.044 223.965 205.169 224.529 206 224.263C207.567 223.761 209.903 224.498 210.828 223.651C211.753 222.805 210.828 220.391 211.063 218.776C210.899 217.129 210.899 215.469 211.063 213.822C211.157 212.756 211.533 212.114 212.725 212.255C215.073 212.212 217.352 211.458 219.262 210.091C220.635 209.098 221.684 207.722 222.278 206.136C222.872 204.549 222.984 202.822 222.601 201.172C222.277 199.874 221.562 198.707 220.552 197.829C219.543 196.951 218.288 196.405 216.957 196.265V196.265ZM212.521 206.596C210.044 206.282 211.69 203.946 210.953 202.677C210.53 201.909 211.298 201.595 211.925 201.673C214.089 201.673 215.907 202.975 215.907 204.479C215.954 205.671 214.402 206.925 212.521 206.596Z" fill="#ED6879"/>
<path d="M288.221 196.657C288.221 195.528 287.845 195.089 286.654 195.183C282.891 195.372 279.129 195.419 275.367 195.497C271.338 195.607 271.369 195.591 271.369 199.573C271.369 201.14 271.605 201.799 273.439 201.564C276.323 201.203 276.934 201.658 277.028 204.385C277.201 209.433 277.922 214.449 277.358 219.513C276.856 224.059 277.201 224.404 281.637 224.372C281.966 224.349 282.296 224.349 282.625 224.372C283.565 224.482 283.942 224.153 284.067 223.118C284.232 220.984 284.232 218.841 284.067 216.707C283.91 212.239 283.377 207.787 283.377 203.304C283.377 201.658 283.926 201.344 285.368 201.328C288.645 201.328 288.692 201.172 288.315 197.817C288.26 197.433 288.229 197.045 288.221 196.657V196.657Z" fill="#ED6879"/>
<path d="M170.964 175.337C170.805 173.921 171.044 172.488 171.653 171.199C172.315 170.243 172.659 169.104 172.637 167.942C172.614 166.779 172.226 165.654 171.528 164.725V164.725C170.29 166.01 170.76 167.625 170.776 169.114C170.789 170.175 170.592 171.228 170.197 172.213C169.801 173.198 169.215 174.094 168.471 174.851C167.146 176.213 166.083 177.807 165.336 179.554V179.554C167.029 179.241 167.985 177.563 169.647 177.171C170.603 176.968 170.87 176.294 170.964 175.337Z" fill="#FEFCFC"/>
<path d="M91.9562 173.644C93.1162 173.644 95.0914 171.042 95.0914 169.553C94.9503 167.656 93.32 168.079 92.1129 167.813C90.8588 168.095 88.9777 167.468 88.9777 169.631C88.7582 171.168 90.8118 173.691 91.9562 173.644Z" fill="#ED6879"/>
<path d="M164.74 137.417C166.136 137.589 164.49 138.279 164.991 138.546C165.493 138.812 166.245 138.546 166.292 137.809C166.339 137.072 165.806 137.072 165.336 137.072C164.443 137.072 164.427 136.037 163.769 135.787C163.831 136.492 163.925 137.307 164.74 137.417Z" fill="#FEFEFE"/>
<path d="M105.892 156.62C104.283 156.616 102.737 157.248 101.592 158.378C100.447 159.509 99.7951 161.046 99.7786 162.655C99.7805 163.472 99.945 164.281 100.262 165.034C100.58 165.787 101.044 166.469 101.627 167.041C102.211 167.613 102.902 168.063 103.661 168.365C104.42 168.667 105.232 168.815 106.049 168.801C107.611 168.708 109.078 168.019 110.146 166.876C111.214 165.733 111.802 164.223 111.788 162.658C111.774 161.094 111.159 159.594 110.07 158.47C108.982 157.347 107.503 156.684 105.939 156.62H105.892Z" fill="white"/>
<path d="M76.3271 156.636C75.119 156.614 73.9318 156.953 72.9169 157.608C71.902 158.264 71.1053 159.207 70.6286 160.317C70.1518 161.427 70.0165 162.654 70.2399 163.842C70.4633 165.029 71.0353 166.123 71.883 166.984C72.7307 167.845 73.8156 168.434 74.9994 168.676C76.1832 168.918 77.4123 168.802 78.5298 168.343C79.6473 167.883 80.6027 167.102 81.2742 166.097C81.9456 165.092 82.3026 163.911 82.2997 162.702C82.3122 161.91 82.1669 161.123 81.8723 160.388C81.5778 159.652 81.1398 158.983 80.584 158.418C80.0281 157.854 79.3655 157.405 78.6346 157.099C77.9038 156.793 77.1194 156.636 76.3271 156.636Z" fill="white"/>
</svg>
