<svg width="126" height="77" viewBox="0 0 126 77" fill="none" xmlns="http://www.w3.org/2000/svg">
<path d="M67.8938 40.5663C68.3943 40.2496 68.7804 39.7811 68.9956 39.2293C69.2108 38.6775 69.2438 38.0714 69.0899 37.4995C68.6307 36.7328 68.4748 35.8221 68.6529 34.9463C68.7456 34.641 68.7333 34.3135 68.6179 34.016C68.5026 33.7186 68.2908 33.4684 68.0165 33.3055C67.7901 33.1061 67.6108 32.8589 67.4915 32.5818C67.3721 32.3047 67.3158 32.0046 67.3264 31.7031C67.2421 30.8904 67.1271 30.1237 66.115 29.9473C65.747 29.886 65.632 29.4796 65.5477 29.3493C65.3497 28.9795 65.1805 28.595 65.0416 28.1992C64.94 27.9914 64.8274 27.7893 64.7043 27.5935C64.6542 27.6471 64.6104 27.7062 64.5739 27.7698C64.4312 28.0375 64.38 28.3445 64.4283 28.6439C64.404 29.1678 64.4929 29.6909 64.6889 30.1773C64.9764 30.5462 65.3503 30.8385 65.7777 31.0284C65.8599 31.0567 65.9356 31.1011 66.0003 31.1591C66.0651 31.2171 66.1176 31.2875 66.1547 31.3661C66.1919 31.4447 66.2129 31.5299 66.2167 31.6167C66.2204 31.7036 66.2067 31.7903 66.1764 31.8718C66.1479 32.3117 66.0786 32.7481 65.9694 33.1752C65.701 33.9036 66.0537 34.2332 66.6364 34.4709C66.9417 34.5813 67.1986 34.7951 67.3625 35.0753C67.5264 35.3554 67.5869 35.6842 67.5335 36.0044C67.5335 36.5717 67.3034 37.2618 67.8325 37.7065C68.0004 37.8205 68.1423 37.9688 68.249 38.1415C68.3557 38.3142 68.4247 38.5075 68.4514 38.7087C68.4782 38.9099 68.4622 39.1145 68.4044 39.3091C68.3466 39.5037 68.2484 39.6839 68.1162 39.8379C68.0076 40.0614 67.9302 40.2988 67.8862 40.5433L67.8938 40.5663Z" fill="#FEFEFE"/>
<path d="M46.2955 30.7064C45.5009 28.2416 44.4391 25.8712 43.129 23.6373C41.9987 21.6235 40.1845 20.0813 38.015 19.29C37.0336 18.9296 36.0216 18.6613 35.0402 18.3086C34.8397 18.2758 34.6506 18.1937 34.4897 18.0697C34.3288 17.9458 34.2012 17.7838 34.1184 17.5983C34.0355 17.4129 34 17.2098 34.015 17.0072C34.0301 16.8047 34.0952 16.609 34.2045 16.4378C34.3578 16.0545 34.5725 15.6711 34.8332 15.1651C33.553 15.7102 32.3676 16.4556 31.3216 17.3732C30.8309 17.7796 30.2942 18.2779 29.6502 17.7489C29.0061 17.2199 29.3665 16.5835 29.6502 16.0161C30.0949 15.0884 30.5856 14.1837 31.1836 13.0873C29.6602 13.8884 28.3267 15.0075 27.2734 16.3688C26.9513 16.7445 26.6293 17.1355 26.062 16.8212C25.4946 16.5068 25.5483 16.0545 25.6249 15.5868C25.7246 14.9351 25.8856 14.291 26.016 13.6393L25.8549 13.5626C25.6845 13.7393 25.5281 13.929 25.3873 14.13C23.6851 16.9745 21.4387 19.1367 18.1648 20.118C17.3674 20.3851 16.7049 20.9514 16.317 21.6975C13.9034 25.7878 12.0176 30.1673 10.7047 34.7316C10.4098 35.9313 9.85486 37.0516 9.07925 38.0131C7.83717 39.5466 6.51842 41.0187 5.36835 42.6134C3.75059 44.8369 2.80753 47.3594 3.26756 50.1119C3.9576 54.2675 6.37275 57.2423 10.0606 59.2205C10.536 59.4811 10.7584 59.3201 11.065 58.9521C11.6387 58.1565 12.408 57.5225 13.2986 57.1115C14.1892 56.7004 15.1708 56.5263 16.1484 56.606C16.5296 56.6116 16.9038 56.5021 17.2218 56.2916C18.7742 55.4449 20.5977 55.2438 22.2974 55.7319C23.5778 56.0923 24.8736 56.4143 26.131 56.813C26.415 56.9138 26.7185 56.9475 27.0178 56.9116C27.317 56.8757 27.6039 56.7711 27.8561 56.606C28.5968 56.1684 29.4416 55.938 30.3019 55.9389C35.0279 55.8286 39.6127 54.3066 43.4664 51.5686C44.4212 50.9737 45.2454 50.1912 45.8892 49.2685C47.6632 46.7025 48.8372 43.7703 49.3241 40.689C49.5617 38.8872 49.6461 37.0088 48.5573 35.437C47.582 33.9759 46.8204 32.3829 46.2955 30.7064ZM29.0291 42.0767C29.6195 42.2071 30.4169 42.0001 30.4859 42.9278C30.5396 43.6945 29.5428 44.9136 28.9525 44.9289C28.3621 44.9442 27.419 43.7175 27.419 42.9661C27.5264 41.9081 28.4158 42.2147 29.0291 42.0767ZM19.7289 44.0779C18.4524 44.0621 17.1984 43.7389 16.0733 43.1357C14.9482 42.5324 13.9851 41.6668 13.2655 40.6123C12.4594 39.4901 12.1171 38.1003 12.3099 36.7322C12.5027 35.364 13.2157 34.1229 14.3006 33.2672C17.7661 30.3383 23.8002 31.1204 26.407 34.8006C26.8341 35.3754 27.1434 36.0289 27.3172 36.7236C27.4909 37.4183 27.5257 38.1404 27.4196 38.8486C27.3134 39.5568 27.0684 40.237 26.6986 40.8502C26.3288 41.4634 25.8414 41.9975 25.2646 42.4217C23.6762 43.6168 21.7127 44.2043 19.7289 44.0779ZM31.3676 50.0736C30.8476 50.5517 30.1854 50.8465 29.4821 50.9129C28.7788 50.9794 28.0731 50.8138 27.4727 50.4416C27.5678 51.824 27.3826 53.2114 26.9284 54.5205C26.7367 55.0572 26.4607 55.4712 25.8319 55.2872C25.2032 55.1032 25.2109 54.5665 25.3873 54.0451C25.8309 52.7208 25.9724 51.314 25.8013 49.9279C25.7624 49.2339 25.5125 48.5683 25.085 48.0202C24.6575 47.4721 24.0728 47.0677 23.4091 46.861C22.8801 46.654 22.3281 46.4163 22.5811 45.7263C22.8341 45.0362 23.4398 45.1359 24.0225 45.3659C24.7606 45.5714 25.4203 45.9934 25.9163 46.5773C26.5803 47.4435 27.4358 48.1442 28.4158 48.6245C28.6798 48.805 28.9975 48.8905 29.3165 48.8668C29.6355 48.8431 29.937 48.7117 30.1715 48.4941C30.6622 48.1031 31.1606 47.9958 31.59 48.4941C31.6877 48.6089 31.76 48.743 31.8021 48.8878C31.8442 49.0325 31.8551 49.1846 31.8341 49.3339C31.8131 49.4831 31.7606 49.6262 31.6802 49.7537C31.5998 49.8813 31.4933 49.9903 31.3676 50.0736ZM44.3404 40.735C41.8486 44.1775 36.2976 45.0899 32.8397 42.6288C29.8495 40.5126 29.5352 36.6867 32.1267 33.9572C33.6601 32.3088 35.9602 31.3734 39.3951 31.3811C40.3542 31.4385 41.2904 31.6977 42.1426 32.1416C42.9947 32.5855 43.7436 33.2042 44.3404 33.9572C45.12 34.9146 45.5457 36.1115 45.5457 37.3461C45.5457 38.5807 45.12 39.7776 44.3404 40.735Z" fill="white"/>
<path d="M105.662 51.883C106.705 51.883 107.709 51.4 108.691 51.63C109.32 51.6405 109.95 51.6149 110.577 51.5533C111.344 51.423 111.566 51.1623 111.114 50.4416C110.286 49.0177 109.595 47.5185 109.051 45.964C107.962 43.2345 107.127 40.413 105.846 37.7525C104.806 35.7982 103.914 33.7684 103.178 31.6801C102.382 29.3071 101.293 27.043 99.9348 24.9407C99.7824 24.7052 99.5735 24.5117 99.327 24.3778C99.0806 24.2438 98.8045 24.1738 98.5241 24.174C97.3587 24.036 96.1703 24.22 95.0202 24.0206C94.0005 23.8443 93.5404 24.2353 93.1647 25.186C90.9566 30.8367 89.1472 36.6331 86.778 42.2301C85.5359 45.1589 84.4779 48.1491 83.0518 51.0166C82.8678 51.3923 82.9445 51.7067 83.4735 51.7067C84.0732 51.6559 84.6772 51.6894 85.2676 51.8063C86.1206 52.048 86.9972 52.1971 87.8821 52.251C88.0608 52.2875 88.2451 52.2854 88.4229 52.2449C88.6007 52.2043 88.7678 52.1263 88.913 52.0159C89.0581 51.9056 89.1781 51.7655 89.2648 51.6051C89.3514 51.4446 89.4028 51.2675 89.4155 51.0856C89.7269 49.9239 90.148 48.7943 90.6729 47.7121C90.8139 47.3609 91.053 47.0578 91.3616 46.8389C91.6702 46.62 92.0354 46.4946 92.4134 46.4777C95.5569 46.01 98.6927 46.7 101.829 46.4777C102.035 46.4576 102.243 46.5112 102.414 46.629C102.585 46.7469 102.709 46.9214 102.764 47.1217C103.262 48.3715 103.638 49.6749 104.167 50.9553C104.267 51.2614 104.472 51.5225 104.745 51.6923C105.019 51.862 105.344 51.9296 105.662 51.883ZM99.0071 40.2596C97.4737 40.2596 95.9786 40.2136 94.4605 40.1983C94.1768 40.1983 93.9391 40.1983 94.0771 39.7919C94.8439 37.4918 95.7256 35.2607 96.7376 33.0295C96.8603 33.1445 96.9523 33.1905 96.9906 33.2672C97.8877 35.2146 99.0071 37.0471 99.7662 39.0482C100.165 40.0679 100.096 40.2366 99.0071 40.2596Z" fill="#ED6879"/>
<path d="M80.836 50.4723C80.905 49.1766 80.9203 47.8731 81.0047 46.5774C81.0583 45.8107 80.7593 45.527 79.9696 45.5423C77.3321 45.596 74.6946 45.5423 72.0571 45.6037C71.2291 45.6037 71.022 45.297 70.8994 44.5226C70.7575 42.9438 70.7575 41.3555 70.8994 39.7766C70.8994 39.1786 71.1217 39.0099 71.6661 39.0559C73.6979 39.0559 75.7297 39.0559 77.7998 38.9793C79.8699 38.9026 80.2456 38.2892 79.9466 36.3418C79.9486 35.9927 79.923 35.644 79.8699 35.299C79.6706 34.7393 79.7933 33.8806 78.9959 33.7656C77.7012 33.4647 76.3764 33.3129 75.0473 33.3132C74.0263 33.3868 73.0014 33.3868 71.9804 33.3132C70.378 33.2289 70.3703 33.2059 70.516 31.5881C70.5981 31.1523 70.6544 30.7119 70.6847 30.2694C70.6847 29.5027 71.022 29.334 71.7428 29.3263C74.0429 29.3263 76.343 29.242 78.5972 29.1577C79.7166 29.1577 80.0616 28.7666 80.1306 27.6242C80.1652 26.6734 80.1498 25.7213 80.0846 24.7721C80.0386 24.197 79.8546 23.668 79.1032 23.5913C75.2184 23.1542 71.301 23.0849 67.4032 23.3843C66.7871 23.5258 66.1568 23.5953 65.5247 23.5913C64.1063 23.3843 63.8916 23.5913 63.8916 25.0097C63.8916 25.3624 63.8916 25.7074 63.8916 26.0601L64.1063 26.4128C64.436 26.5355 64.4436 27.0339 64.873 27.0415C65.103 27.0415 65.3637 27.1335 65.3407 27.4019C65.3407 27.4019 65.3407 27.6012 65.241 27.6626C65.1413 27.7239 65.1413 27.6626 65.0263 27.6626C64.9113 27.6626 64.919 27.6626 64.8883 27.6626C64.8577 27.6626 64.804 27.7622 64.7887 27.8236C64.8152 27.914 64.8512 28.0014 64.896 28.0843C64.9263 28.1414 64.9623 28.1953 65.0033 28.2453C65.1305 28.6296 65.3167 28.9917 65.5554 29.3187C65.7087 29.5333 65.8084 29.863 66.1227 29.9167C67.1348 30.0931 67.2498 30.8598 67.3342 31.6725C67.3235 31.974 67.3798 32.2741 67.4992 32.5512C67.6185 32.8283 67.7978 33.0755 68.0242 33.2749C68.2985 33.4378 68.5103 33.688 68.6257 33.9854C68.741 34.2829 68.7533 34.6104 68.6606 34.9157C68.4825 35.7914 68.6384 36.7021 69.0976 37.4688C69.2515 38.0408 69.2185 38.6469 69.0033 39.1987C68.7881 39.7505 68.402 40.219 67.9015 40.5357C68.243 40.9902 68.4327 41.5407 68.4437 42.109C68.4547 42.6774 68.2865 43.2348 67.9629 43.7022C67.6647 44.3325 67.5479 45.0334 67.6255 45.7263C67.6255 46.194 67.4492 46.4931 66.9815 46.6311C66.1687 46.8227 65.7011 47.6431 64.873 47.7965C64.551 47.7965 64.459 47.9958 64.4666 48.3025C64.4666 48.8085 64.4666 49.3146 64.4666 49.8359C64.4666 51.1623 64.7963 51.469 66.1457 51.5994C67.9552 51.7757 69.7723 51.699 71.5817 51.745C74.3356 51.8284 77.092 51.7234 79.8316 51.4307C80.5293 51.377 80.8053 51.0703 80.836 50.4723Z" fill="#ED6879"/>
<path d="M46.7632 1.2032C46.1595 0.995314 45.509 0.964248 44.8882 1.11367C44.2674 1.26308 43.7023 1.58676 43.2593 2.04659C42.3508 2.95385 41.6406 4.03998 41.1738 5.23612C39.5637 8.92401 38.2067 12.7116 36.8342 16.4915C36.6579 16.9592 36.7039 17.1815 37.2559 17.3425C39.6684 17.9511 41.8197 19.3226 43.3896 21.2528C43.4373 21.1586 43.4783 21.0613 43.5123 20.9614C43.4932 18.569 44.1496 16.2197 45.4061 14.1837C45.6514 13.8156 45.4061 13.5626 45.2988 13.3096C44.578 11.6535 43.6503 10.0894 43.0676 8.37198C42.8529 7.74327 42.3469 6.94589 43.313 6.57787C44.279 6.20984 44.371 7.13757 44.6317 7.7126C45.7818 10.2888 46.7709 12.9416 48.4653 15.2264C49.738 16.9362 50.9724 18.6689 52.2375 20.3787C53.0752 21.5739 54.0141 22.6948 55.0437 23.7293C55.5344 24.197 56.0174 24.9943 56.7305 24.7643C57.4435 24.5343 57.4665 23.6372 57.6045 23.0009C58.2934 19.2065 58.0487 15.3015 56.8915 11.6228C55.381 6.32485 52.0612 2.82097 46.7632 1.2032Z" fill="white"/>
<path d="M5.08465 22.4796C6.72542 20.2944 8.32018 18.0863 9.93028 15.8782C11.0917 14.3316 12.0527 12.6442 12.7901 10.8562C13.2501 9.7138 13.7638 8.55606 14.2392 7.44433C14.4616 6.89996 14.7759 6.43226 15.4353 6.67761C16.0947 6.92296 15.9873 7.52866 15.811 8.0577C15.6224 8.6306 15.4049 9.19358 15.1593 9.74446C14.5919 11.0172 13.9939 12.2746 13.4188 13.578C13.3038 13.8234 13.1658 14.0534 13.4188 14.3447C14.6379 16.0392 15.0289 18.025 15.3586 20.1718C16.1793 19.3414 17.1565 18.682 18.2338 18.232C19.1538 17.8103 20.0739 17.3809 21.0093 16.9899C21.1693 16.9558 21.3188 16.8841 21.4454 16.7806C21.5721 16.6771 21.6722 16.5448 21.7374 16.3949C21.8027 16.2449 21.8312 16.0815 21.8206 15.9183C21.8099 15.7551 21.7605 15.5967 21.6763 15.4565C20.4189 12.1366 19.1308 8.83208 17.7124 5.58121C17.2246 4.33639 16.4771 3.20985 15.5196 2.27667C15.0974 1.81911 14.5551 1.48949 13.9545 1.32544C13.3539 1.1614 12.7193 1.16954 12.1231 1.34895C8.21284 2.53736 5.09998 4.74549 3.2292 8.43338C1.34412 12.2985 0.528709 16.5979 0.867723 20.8848C0.909061 22.1243 1.16861 23.3467 1.63444 24.496C1.92579 25.1554 2.28614 25.2628 2.86118 24.8027C3.70191 24.1302 4.4496 23.349 5.08465 22.4796Z" fill="white"/>
<path d="M124.201 23.7906H114.495V24.036H109.825C109.457 24.036 108.951 23.9593 108.936 24.496C108.811 26.1415 108.847 27.7952 109.043 29.4336C109.143 30.024 109.496 30.2004 109.994 30.0393C110.806 29.8837 111.638 29.8656 112.455 29.9857C113.912 30.1084 114.035 30.185 114.242 31.6418C114.732 35.1227 114.556 38.6495 114.801 42.1458C115.016 45.1513 114.61 48.1568 114.801 51.17C114.801 51.6377 114.801 52.067 115.461 52.0517C117.148 52.0057 118.827 51.9904 120.513 51.9827C120.95 51.9827 121.096 51.814 121.142 51.3617C121.564 47.0757 121.142 42.8051 120.828 38.5422C120.636 35.9124 120.697 33.2902 120.521 30.6681C120.521 30.1697 120.682 29.9473 121.211 29.9013C122.182 29.7484 123.166 29.6945 124.148 29.7403C124.914 29.7403 125.351 29.4796 125.39 28.6823C125.451 27.2792 125.275 25.8914 125.206 24.5037C125.175 23.7906 124.715 23.783 124.201 23.7906Z" fill="#ED6879"/>
<path d="M89.8065 21.8049C91.0026 21.6362 92.1067 22.2496 93.2874 22.1652C93.5178 22.1821 93.7464 22.1132 93.929 21.9716C94.1117 21.83 94.2354 21.6259 94.2765 21.3985C94.5065 20.6318 94.8592 19.8651 95.1275 19.0984C95.2435 18.7395 95.4697 18.4263 95.7739 18.2034C96.0781 17.9804 96.4448 17.8589 96.8219 17.8563C98.9227 17.5496 101.008 18.1016 103.094 17.8563C103.274 17.8183 103.461 17.82 103.641 17.8614C103.821 17.9027 103.989 17.9827 104.135 18.0958C104.281 18.2088 104.401 18.3523 104.486 18.5161C104.571 18.68 104.619 18.8603 104.627 19.0447C104.765 19.8114 105.194 20.4478 105.394 21.1685C105.593 21.8892 106.015 21.9352 106.613 21.9352C107.38 21.9352 108.146 21.5442 108.76 21.6975C109.342 21.6975 109.726 21.6975 110.101 21.6975C110.761 21.6975 110.975 21.4215 110.577 20.8081C110.024 19.8834 109.566 18.9046 109.212 17.8869C108.246 15.3875 107.418 12.8266 106.245 10.4038C105.608 9.23949 105.069 8.02384 104.635 6.7696C104.08 5.05234 103.307 3.41348 102.335 1.8933C102.205 1.64123 102.002 1.43364 101.754 1.29707C101.505 1.1605 101.222 1.10114 100.939 1.12658C100.117 1.2023 99.2881 1.18171 98.4704 1.06525C97.6653 0.904238 97.42 1.24926 97.1746 1.87796C95.4879 6.17156 94.1078 10.5725 92.3213 14.8278C91.4243 16.9439 90.5502 19.0754 89.6532 21.1915C89.4998 21.4828 89.4538 21.8509 89.8065 21.8049ZM97.857 12.7116C98.4704 11.0785 99.0454 9.42243 99.8965 7.66665C100.702 9.36109 101.43 10.9099 102.197 12.474C102.419 12.9723 102.197 13.2407 101.637 13.2407C100.502 13.2407 99.3368 13.1947 98.2404 13.164C97.8953 13.1793 97.742 13.0337 97.8647 12.7116H97.857Z" fill="#ED6879"/>
<path d="M34.7948 67.0793C34.7025 66.3177 34.8684 65.5472 35.266 64.891C35.6636 64.2349 36.2698 63.7312 36.9876 63.4604C37.7166 63.2112 38.4738 63.0541 39.2417 62.9927C38.565 62.2203 37.6601 61.6832 36.6579 61.4593C31.7663 60.1175 26.8746 58.7605 21.983 57.4264C21.0826 57.1077 20.1002 57.1077 19.1998 57.4264L19.9665 57.9631C22.0367 59.4965 22.4047 61.2523 21.0629 63.4527C21.0024 63.559 20.9706 63.6793 20.9706 63.8016C20.9706 63.9239 21.0024 64.0441 21.0629 64.1504C21.2715 64.7233 21.294 65.3472 21.1275 65.9336C20.9609 66.52 20.6137 67.039 20.1352 67.4167C19.9846 67.519 19.8688 67.6648 19.803 67.8347C19.7373 68.0045 19.7248 68.1903 19.7672 68.3674C19.8515 68.8427 20.1736 68.8811 20.5339 68.9654L32.556 72.2623C32.878 72.3466 33.177 72.5536 33.4837 72.1473C33.6149 72.0199 33.7048 71.856 33.7417 71.6769C33.7786 71.4978 33.7608 71.3118 33.6907 71.1429C33.4641 70.5766 33.4245 69.9528 33.5776 69.3624C33.7307 68.772 34.0685 68.2461 34.5418 67.8613C34.6538 67.7684 34.7371 67.6456 34.7819 67.5071C34.8267 67.3686 34.8312 67.2202 34.7948 67.0793Z" fill="white"/>
<path d="M63.7383 13.279C63.5619 15.9471 63.8609 18.646 63.8379 21.2681C63.8379 21.8892 63.9606 22.1959 64.7273 21.9735C65.6932 21.6444 66.724 21.5524 67.7328 21.7052C68.2925 21.8125 68.3309 21.7588 68.3232 21.2145C68.2619 19.06 68.2619 16.8979 68.2695 14.7434C68.2695 13.325 68.3999 13.3786 69.803 13.21C73.4295 12.7499 75.8217 11.2932 76.6037 7.91964C76.8075 7.24965 76.8648 6.54367 76.7717 5.84959C76.6787 5.15551 76.4374 4.48955 76.0644 3.89689C75.6913 3.30423 75.1952 2.79873 74.6096 2.41466C74.024 2.0306 73.3627 1.77695 72.6705 1.67093C70.102 1.09589 67.4952 1.24924 64.9113 1.11889C63.7229 1.06522 63.6156 1.11889 63.6999 2.3533C63.9079 5.99189 63.9207 9.63901 63.7383 13.279ZM69.6726 5.65784C70.2995 5.75115 70.8786 6.04741 71.3211 6.50123C71.4982 6.66127 71.63 6.86521 71.7031 7.09245C71.7762 7.3197 71.7881 7.56222 71.7376 7.79553C71.687 8.02884 71.5758 8.24468 71.4152 8.42128C71.2545 8.59788 71.0502 8.72899 70.8227 8.80137L70.562 8.90871C68.9212 9.47607 68.4535 9.19239 68.2619 7.51329C68.2619 7.26027 68.2619 7.00726 68.2619 6.74657C68.2082 5.35882 68.2695 5.31282 69.688 5.65784H69.6726Z" fill="#ED6879"/>
<path d="M113.705 11.4389C113.945 11.8018 114.066 12.2307 114.05 12.6656C114.05 15.5561 114.05 18.4389 113.973 21.3295C113.973 21.7281 114.027 21.9505 114.456 21.9352C115.721 21.9352 116.994 21.8892 118.29 21.8278C118.612 21.8278 118.934 21.7205 118.926 21.1991C118.865 18.899 118.972 16.5988 118.796 14.36C118.713 12.9811 119.09 11.6136 119.869 10.4728C121.441 7.87364 123.235 5.40482 124.661 2.71366C125.175 1.7476 125.006 1.39491 123.895 1.33358C123.009 1.29685 122.125 1.20982 121.249 1.07289C120.911 0.980547 120.551 1.01255 120.235 1.16308C119.918 1.31362 119.666 1.57271 119.524 1.89328C118.436 3.83306 117.324 5.72684 116.212 7.71263C115.913 7.56696 115.867 7.2296 115.729 6.94592C114.909 5.31282 114.065 3.67972 113.237 2.04662C112.793 1.1649 112.21 0.681869 111.121 1.04222C110.533 1.1725 109.928 1.21385 109.327 1.1649C108.016 1.1649 107.878 1.32591 108.499 2.51432C110.063 5.58117 111.896 8.50234 113.705 11.4389Z" fill="#ED6879"/>
<path d="M78.2368 21.0074C78.2368 21.4291 78.1908 21.7741 78.7735 21.7741C81.8403 21.7741 84.8868 21.8099 87.9127 21.8815C88.3037 21.8815 88.5031 21.7588 88.4878 21.3371C88.4878 20.256 88.4418 19.175 88.4341 18.1016C88.4341 17.5189 88.2041 17.3348 87.5754 17.2658C86.3103 17.1662 85.0452 17.1585 83.7418 17.1662C83.2741 17.1662 83.1361 17.0512 83.0901 16.5375C82.9418 14.5458 82.9623 12.5452 83.1514 10.5571C83.3354 7.93493 83.1514 5.32043 83.1514 2.69827C83.1529 2.3187 83.096 1.94115 82.9828 1.57887C82.96 1.43916 82.8845 1.31351 82.7718 1.2279C82.659 1.14228 82.5177 1.10324 82.377 1.11884C81.3266 1.11884 80.2763 1.11884 79.2335 1.11884C78.8578 1.11884 78.4668 1.18785 78.3825 1.70154C78.283 2.20657 78.2342 2.72026 78.2368 3.23497C78.5051 6.30183 78.2981 9.36868 78.3595 12.4355C78.2291 15.2954 78.1448 18.1476 78.2368 21.0074Z" fill="#ED6879"/>
<path d="M116.687 66.4506C115.691 63.4757 114.188 60.7156 113.107 57.779C112.532 56.2456 111.635 55.3102 109.795 55.5786C109.174 55.6706 108.882 55.7856 108.66 56.3913C107.019 60.7616 105.509 65.1778 103.515 69.5174C103.975 69.5174 104.282 69.5174 104.604 69.5864C106.475 69.9315 106.536 69.9621 107.142 68.237C107.245 67.7895 107.515 67.3982 107.897 67.1431C108.279 66.888 108.744 66.7884 109.197 66.8646C110.274 66.9221 111.354 66.9221 112.432 66.8646C112.603 66.8352 112.777 66.842 112.945 66.8844C113.113 66.9269 113.27 67.0042 113.406 67.1111C113.541 67.2181 113.653 67.3525 113.734 67.5055C113.815 67.6585 113.862 67.8268 113.874 67.9993C114.211 69.5328 114.426 69.6554 116.02 69.5328C116.212 69.5328 116.404 69.5328 116.595 69.5328C118.06 69.5328 118.045 69.5328 117.447 68.2754C117.159 67.6819 116.906 67.0726 116.687 66.4506ZM111.635 63.8361C111.413 63.8361 111.19 63.8361 110.968 63.8361C109.059 63.8361 109.059 63.8361 109.756 61.9883C109.979 61.4056 110.239 60.8229 110.569 60.0178C111.144 61.2063 111.635 62.1877 112.103 63.1844C112.271 63.5831 112.156 63.8667 111.635 63.8361Z" fill="#ED6879"/>
<path d="M70.286 64.0738C70.1327 63.8284 69.803 63.5524 70.286 63.307C71.3057 62.8623 71.6048 61.8886 71.9345 61.0069C72.6015 59.2051 71.4591 55.6399 68.4459 55.8162C67.3112 55.8776 66.1458 55.8162 65.0264 55.8162C63.3319 55.8929 63.3319 55.9159 63.3166 57.6794C63.3166 61.2062 63.861 64.7025 63.6923 68.2293C63.6233 69.6171 63.999 69.9314 65.4021 69.9008C65.7164 69.9008 66.0308 69.7781 66.3374 69.7858C66.8435 69.7858 66.9661 69.6094 66.9431 69.1034C66.9999 67.4235 66.8972 65.7419 66.6365 64.0814C67.1494 64.4411 67.5506 64.938 67.7942 65.5152C68.4306 66.7112 69.0056 67.9457 69.6266 69.1494C69.757 69.4101 69.8567 69.7398 70.3167 69.6478C70.9344 69.5154 71.5635 69.4435 72.1951 69.4331C73.0078 69.4331 73.0845 69.0957 72.7778 68.467C72.0333 66.9554 71.2013 65.4885 70.286 64.0738ZM67.7329 61.0069C66.5675 61.1372 66.7591 60.3629 66.7821 59.5271C66.8665 59.2204 66.3528 58.4614 67.4185 58.4844C68.3616 58.4844 69.4273 59.0978 69.458 59.6958C69.4886 60.2938 68.7066 60.8766 67.7329 60.9839V61.0069Z" fill="#ED6879"/>
<path d="M81.6794 66.5043H80.0616C77.4318 66.5043 77.4471 66.5043 77.6158 63.8898C77.6158 63.3684 77.7845 63.1691 78.3289 63.1844C79.2489 63.1844 80.169 63.1231 81.089 63.1077C81.7024 63.1077 82.2391 63.0464 82.2468 62.2107C82.2468 60.9379 82.0321 60.6006 81.1427 60.3936C80.2 60.3018 79.2529 60.2634 78.3059 60.2785C77.7692 60.2172 77.3015 60.2249 77.4165 59.4505C77.5161 58.8065 77.4701 58.1931 78.4362 58.2544C79.4023 58.3158 80.215 58.1854 81.1044 58.1778C81.8021 58.1778 82.3464 58.0934 82.3541 57.1734C82.3541 55.6399 82.2544 55.3639 81.158 55.3026C79.1876 55.1876 77.2248 55.3026 75.262 55.3026C73.9739 55.3026 74.0812 55.8623 74.1119 56.7133C74.2269 59.7188 74.3189 62.732 74.4186 65.7452H74.3803C74.3803 66.6959 74.4186 67.6543 74.3803 68.6051C74.3803 69.2644 74.641 69.5328 75.2467 69.5558C77.1269 69.713 79.0171 69.713 80.8974 69.5558C82.5918 69.3411 82.5918 69.3564 82.7375 67.6697C82.8371 66.5196 82.8218 66.5043 81.6794 66.5043Z" fill="#ED6879"/>
<path d="M101.499 66.489C100.988 66.5239 100.476 66.5239 99.9655 66.489C97.2513 66.489 97.2667 66.489 97.4277 63.7978C97.4277 63.2764 97.6347 63.1691 98.1024 63.1691C99.0531 63.1691 100.004 63.1154 100.955 63.0847C101.53 63.0847 102.097 63.0157 102.02 62.226C101.944 61.4363 102.281 60.6083 101.07 60.3859C100.019 60.1866 98.9841 60.3859 97.9414 60.2556C97.374 60.1942 97.121 60.0332 97.2437 59.4889C97.3663 58.9445 97.0826 58.2775 98.0104 58.2851C98.9381 58.2928 99.9731 58.1931 100.962 58.1931C101.66 58.1931 102.112 58.0244 102.112 57.1964C102.112 55.617 102.028 55.41 101.031 55.3179C98.8195 55.2029 96.6032 55.2029 94.3915 55.3179C93.9928 55.3179 93.9008 55.6016 93.8778 55.87C93.8471 56.2809 93.8471 56.6935 93.8778 57.1044C93.9851 60.0895 94.0976 63.0694 94.2151 66.0443H94.1691C94.1691 66.9336 94.1691 67.823 94.1691 68.7124C94.1691 69.2798 94.3992 69.5558 94.9359 69.5788C96.8147 69.7551 98.7051 69.7705 100.587 69.6248C102.373 69.3948 102.342 69.3718 102.549 67.639C102.664 66.7266 102.411 66.3663 101.499 66.489Z" fill="#ED6879"/>
<path d="M19.7979 60.2861C18.5942 58.4077 15.3356 57.7253 13.5109 58.9674C12.3896 59.835 11.5343 60.9999 11.0422 62.3296C10.5502 63.6593 10.4412 65.1003 10.7277 66.4888C11.4254 69.0957 14.8143 70.7211 17.1221 69.5557C18.1188 69.0573 18.2261 68.5743 17.5514 67.7003C17.2059 67.3792 16.9226 66.9971 16.7157 66.5732C17.6818 66.2818 18.9699 66.7419 19.3532 65.4385C19.7366 64.135 18.2645 64.0124 17.6511 63.1383C18.1571 62.962 18.5942 62.8086 19.0312 62.6399C19.2604 62.5649 19.4687 62.4368 19.6391 62.2661C19.8095 62.0954 19.9372 61.887 20.0119 61.6576C20.0866 61.4283 20.1062 61.1846 20.069 60.9463C20.0318 60.708 19.9389 60.4818 19.7979 60.2861Z" fill="white"/>
<path d="M37.7466 65.0399C37.4767 65.1087 37.2298 65.2478 37.0309 65.4429C36.8321 65.6381 36.6884 65.8823 36.6144 66.1509C36.5404 66.4195 36.5388 66.7029 36.6098 66.9724C36.6807 67.2418 36.8216 67.4876 37.0183 67.685C37.2866 68.0224 37.67 68.2831 37.785 68.7277C36.9723 69.1954 35.6382 68.4441 35.2625 69.7858C34.8868 71.1276 36.3436 71.3729 36.9263 72.1396C36.7116 72.3926 36.4049 72.408 36.1595 72.5076C34.4344 73.1287 34.2888 73.8724 35.6459 75.1758C37.6163 77.0696 41.2429 76.6326 42.8453 74.2788C43.4227 73.438 43.8225 72.4882 44.0202 71.4876C44.218 70.487 44.2095 69.4566 43.9954 68.4594C43.8615 67.7941 43.5837 67.1661 43.1815 66.6195C42.7793 66.0728 42.2624 65.6208 41.6671 65.295C41.0717 64.9692 40.4123 64.7775 39.7351 64.7335C39.0579 64.6894 38.3792 64.794 37.7466 65.0399Z" fill="white"/>
<path d="M90.1132 55.9926C88.5483 55.7492 86.9664 55.6312 85.3826 55.6399C84.1712 55.5786 84.0332 55.7166 84.1559 56.8974C84.3232 59.4503 84.3232 62.0115 84.1559 64.5645C84.1099 66.0979 84.2479 67.6313 84.2862 69.2184C84.2862 69.5404 84.3475 69.8164 84.7539 69.6861C85.5206 69.4408 86.663 69.8011 87.1154 69.3871C87.5677 68.9731 87.1154 67.7923 87.2304 67.0026C87.1499 66.197 87.1499 65.3854 87.2304 64.5798C87.2764 64.0584 87.4604 63.7441 88.0431 63.8131C89.1914 63.7921 90.3062 63.4232 91.2403 62.755C91.9117 62.2694 92.4248 61.5963 92.7153 60.8202C93.0059 60.0442 93.0608 59.1996 92.8734 58.3924C92.715 57.7576 92.3652 57.1869 91.8715 56.7576C91.3777 56.3283 90.7639 56.0612 90.1132 55.9926ZM87.9434 61.0453C86.732 60.8919 87.5371 59.7495 87.1767 59.1285C86.9697 58.7528 87.3454 58.5995 87.6521 58.6378C88.7101 58.6378 89.5995 59.2742 89.5995 60.0102C89.6225 60.5929 88.8635 61.2063 87.9434 61.0453Z" fill="#ED6879"/>
<path d="M124.968 56.1843C124.968 55.6322 124.784 55.4176 124.201 55.4636C122.361 55.5556 120.521 55.5786 118.681 55.6169C116.711 55.6706 116.726 55.6629 116.726 57.6103C116.726 58.3771 116.841 58.6991 117.738 58.5841C119.149 58.4077 119.448 58.6301 119.494 59.9642C119.578 62.433 119.931 64.8864 119.655 67.3629C119.409 69.5864 119.578 69.7551 121.748 69.7397C121.909 69.7282 122.07 69.7282 122.231 69.7397C122.691 69.7934 122.875 69.6324 122.936 69.1264C123.017 68.0826 123.017 67.0342 122.936 65.9905C122.86 63.8054 122.599 61.6279 122.599 59.4351C122.599 58.6301 122.867 58.4767 123.573 58.4691C125.175 58.4691 125.198 58.3924 125.014 56.7516C124.987 56.5636 124.972 56.3742 124.968 56.1843Z" fill="#ED6879"/>
<path d="M67.6179 45.7569C67.5403 45.064 67.6571 44.3631 67.9552 43.7328C68.2788 43.2654 68.4471 42.708 68.4361 42.1396C68.4251 41.5713 68.2354 41.0208 67.8939 40.5663C67.2882 41.195 67.5182 41.9847 67.5258 42.7131C67.5324 43.232 67.4362 43.7472 67.2428 44.2288C67.0493 44.7104 66.7625 45.149 66.3988 45.5192C65.7506 46.1852 65.2308 46.9649 64.8654 47.8194C65.6934 47.666 66.1611 46.8457 66.9738 46.654C67.4415 46.5543 67.5718 46.2246 67.6179 45.7569Z" fill="#FEFCFC"/>
<path d="M28.9755 44.929C29.5428 44.929 30.5089 43.6562 30.5089 42.9278C30.4399 42.0001 29.6425 42.2071 29.0521 42.0768C28.4388 42.2148 27.5187 41.9081 27.5187 42.9662C27.4114 43.7175 28.4158 44.952 28.9755 44.929Z" fill="#ED6879"/>
<path d="M64.574 27.2102C65.2564 27.2946 64.4513 27.6319 64.6967 27.7622C64.942 27.8926 65.3101 27.7623 65.3331 27.4019C65.3561 27.0415 65.0954 27.0415 64.8654 27.0415C64.4283 27.0415 64.4207 26.5355 64.0986 26.4128C64.1293 26.7579 64.1753 27.1566 64.574 27.2102Z" fill="#FEFEFE"/>
<path d="M35.7915 36.6024C35.0045 36.6004 34.2485 36.9095 33.6884 37.4624C33.1283 38.0153 32.8094 38.7673 32.8013 39.5543C32.8023 39.9539 32.8827 40.3493 33.0379 40.7175C33.1932 41.0858 33.4201 41.4194 33.7055 41.6991C33.9909 41.9788 34.3291 42.199 34.7004 42.3467C35.0717 42.4945 35.4686 42.5669 35.8682 42.5598C36.6321 42.5147 37.3495 42.1778 37.8719 41.6186C38.3944 41.0594 38.6819 40.3208 38.675 39.5556C38.6681 38.7904 38.3673 38.0571 37.8349 37.5074C37.3025 36.9577 36.5791 36.6337 35.8145 36.6024H35.7915Z" fill="white"/>
<path d="M21.3313 36.6101C20.7404 36.5994 20.1598 36.765 19.6634 37.0857C19.167 37.4064 18.7774 37.8676 18.5442 38.4106C18.311 38.9536 18.2448 39.5538 18.3541 40.1346C18.4634 40.7153 18.7431 41.2504 19.1577 41.6715C19.5723 42.0926 20.103 42.3807 20.682 42.4991C21.261 42.6174 21.8621 42.5606 22.4087 42.3359C22.9552 42.1113 23.4225 41.7289 23.7509 41.2376C24.0793 40.7462 24.2539 40.1682 24.2525 39.5773C24.2586 39.1898 24.1875 38.805 24.0435 38.4453C23.8994 38.0855 23.6852 37.758 23.4133 37.4819C23.1415 37.2058 22.8174 36.9865 22.4599 36.8368C22.1025 36.6871 21.7188 36.6101 21.3313 36.6101Z" fill="white"/>
</svg>
